<svg width="125" height="125" viewBox="0 0 125 125" fill="none" xmlns="http://www.w3.org/2000/svg">
<g id="&#208;&#186;&#208;&#190;&#208;&#189;&#208;&#180;&#208;&#181;&#208;&#185;">
<g id="Group">
<g id="Group_2">
<path id="Vector" d="M28.2253 104.839C24.8907 104.839 22.1768 107.553 22.1768 110.887C22.1768 114.222 24.8907 116.936 28.2253 116.936C31.5599 116.936 34.2738 114.222 34.2738 110.887C34.2734 107.553 31.5599 104.839 28.2253 104.839ZM28.2253 112.904C27.1122 112.904 26.2091 112 26.2091 110.887C26.2091 109.774 27.1122 108.871 28.2253 108.871C29.3384 108.871 30.2414 109.774 30.2414 110.887C30.2414 112 29.3379 112.904 28.2253 112.904Z" fill="black"/>
<path id="Vector_2" d="M118.952 112.903C123.95 112.903 125 109.613 125 106.855V90.7257C125 85.6049 122.256 81.0505 117.837 78.8408L117.428 78.6897C117.355 78.6715 110.145 76.7904 106.583 71.5628L100.593 59.5831C98.1331 54.6595 92.7078 52.4198 88.7098 52.4198H63.3972C66.6712 47.0487 68.5485 40.7889 68.5485 34.2747H64.5162C64.5162 45.6236 58.1391 56.1236 48.3872 61.3291V54.4359H44.3549V66.5325H56.4515V62.5002H54.1186C56.5158 60.7685 58.6611 58.7261 60.5321 56.4517H88.7094C91.5986 56.4517 95.3688 58.1473 96.9857 61.385L103.034 73.4816L103.161 73.6975C107.22 79.7841 114.738 82.1272 116.206 82.5361C119.149 84.0904 120.968 87.2095 120.968 90.7257V106.855C120.968 108.586 120.684 108.871 118.952 108.871H110.726C109.742 102.044 103.869 96.7742 96.7745 96.7742C89.6798 96.7742 83.8065 102.045 82.823 108.871H42.1778C41.1939 102.044 35.3211 96.7742 28.2264 96.7742C21.1317 96.7742 15.2585 102.045 14.2749 108.871H8.06468C5.91768 108.871 4.03234 106.986 4.03234 104.838V90.7257C4.03234 85.7378 7.36906 83.2682 10.4115 82.6331L22.5729 80.6051C25.2059 80.0767 27.3491 78.6757 29.8391 75.8047L38.3068 64.5164H34.2745C22.9256 64.5164 12.4256 58.1393 7.22002 48.3874H14.1132V44.3551H2.01617V56.4517H6.04851V54.1048C11.7079 61.9396 20.6109 67.2197 30.4072 68.3307L26.7035 73.2741C24.8931 75.3589 23.512 76.3064 21.8468 76.6409L9.66932 78.671C3.88712 79.8747 0 84.7191 0 90.7257V104.838C0 109.21 3.69363 112.903 8.06468 112.903H14.2745C15.2585 119.73 21.1313 125 28.226 125H66.5323V120.967H38.0828C40.248 118.848 41.7261 116.04 42.1774 112.903H82.8226C83.2743 116.04 84.752 118.848 86.9172 120.967H78.6289V125H125V120.967H106.631C108.798 118.849 110.274 116.04 110.726 112.903H118.952ZM28.226 120.967C22.6673 120.967 18.1451 116.445 18.1451 110.887C18.1451 105.328 22.6673 100.806 28.226 100.806C33.7846 100.806 38.3068 105.328 38.3068 110.887C38.3068 116.445 33.7842 120.967 28.226 120.967ZM96.7745 120.967C91.2158 120.967 86.6936 116.445 86.6936 110.887C86.6936 105.328 91.2158 100.806 96.7745 100.806C102.333 100.806 106.855 105.328 106.855 110.887C106.855 116.446 102.333 120.967 96.7745 120.967Z" fill="black"/>
<path id="Vector_3" d="M96.7741 104.839C93.4395 104.839 90.7256 107.553 90.7256 110.887C90.7256 114.222 93.4395 116.936 96.7741 116.936C100.109 116.936 102.823 114.222 102.823 110.887C102.823 107.553 100.109 104.839 96.7741 104.839ZM96.7741 112.904C95.661 112.904 94.7579 112 94.7579 110.887C94.7579 109.774 95.661 108.871 96.7741 108.871C97.8872 108.871 98.7903 109.774 98.7903 110.887C98.7903 112 97.8872 112.904 96.7741 112.904Z" fill="black"/>
<path id="Vector_4" d="M74.5978 120.968H70.5654V125H74.5978V120.968Z" fill="black"/>
<path id="Vector_5" d="M14.1124 120.968H10.0801V125H14.1124V120.968Z" fill="black"/>
<path id="Vector_6" d="M6.04797 120.968H2.01562V125H6.04797V120.968Z" fill="black"/>
<path id="Vector_7" d="M94.7592 82.661V80.6448C94.7592 75.0862 90.237 70.564 84.6783 70.564H58.4685C52.9099 70.564 48.3877 75.0862 48.3877 80.6448H52.42C52.42 77.3102 55.1339 74.5963 58.4685 74.5963H84.6783C88.0129 74.5963 90.7268 77.3102 90.7268 80.6448V82.661C90.7268 85.9956 88.0129 88.7095 84.6783 88.7095H65.3516L69.9745 84.0865L67.1238 81.2359L57.634 90.7257L67.1238 100.215L69.9745 97.3648L65.3516 92.7418H84.6783C90.237 92.7418 94.7592 88.2201 94.7592 82.661Z" fill="black"/>
<path id="Vector_8" d="M20.1613 7.21954V14.1127H24.1936V2.01611H12.0966V6.04845H14.4295C5.57855 12.4454 0 22.9941 0 34.274H4.03234C4.03234 22.9255 10.4094 12.4255 20.1613 7.21954Z" fill="black"/>
<path id="Vector_9" d="M61.3289 20.1613H54.4357V24.1936H66.5323V12.0966H62.4999V14.4295C56.1034 5.57855 45.5547 0 34.2744 0V4.03234C45.6233 4.03234 56.1233 10.4094 61.3289 20.1613Z" fill="black"/>
<path id="Vector_10" d="M22.1771 22.1777V24.337L19.2134 22.4838L17.0762 25.9031L19.7596 27.5789L17.5076 28.3308L18.782 32.1536L24.1933 30.3508L30.4696 34.2743L24.1933 38.1978L18.782 36.3951L17.5076 40.2178L19.7596 40.9698L17.0762 42.6455L19.2134 46.0648L22.1771 44.2121V46.3713H26.2095V41.6916L32.2576 37.9112V41.6675L26.6125 49.1936L29.8383 51.6129L32.2576 48.3854V54.4356H36.2899V48.3854L38.7096 51.6129L41.9354 49.1936L36.2899 41.6675V37.9112L42.3384 41.6916V46.3713H46.3708V44.2121L49.3345 46.0648L51.4713 42.6455L48.7879 40.9698L51.0399 40.2178L49.7659 36.3951L44.3546 38.1978L38.0783 34.2743L44.3546 30.3508L49.7659 32.1536L51.0399 28.3308L48.7879 27.5789L51.4713 25.9031L49.3345 22.4838L46.3708 24.337V22.1777H42.3384V26.857L36.2899 30.6374V26.8811L41.9354 19.355L38.7096 16.9358L36.2899 20.1637V14.113H32.2576V20.1637L29.8383 16.9358L26.6125 19.355L32.2576 26.8811V30.6374L26.2095 26.857V22.1777H22.1771Z" fill="black"/>
</g>
</g>
</g>
</svg>
