<svg width="148" height="148" viewBox="0 0 148 148" fill="none" xmlns="http://www.w3.org/2000/svg">
<g id="&#208;&#188;&#208;&#176;&#209;&#129;&#208;&#187;&#208;&#190;">
<g id="Group">
<g id="Group_2">
<path id="Vector" d="M45.14 63.8868C43.9066 62.4068 41.9335 61.6667 39.96 61.6667H24.6666C20.4732 61.6667 17.2666 64.8733 17.2666 69.0668V120.867C17.2666 125.06 20.4732 128.267 24.6666 128.267H49.3332C53.5266 128.267 56.7332 125.06 56.7332 120.867V78.4402C56.7332 76.4667 55.9932 74.7402 54.5132 73.2602L45.14 63.8868ZM51.8 120.867C51.8 122.347 50.8135 123.333 49.3335 123.333H24.6666C23.1866 123.333 22.2 122.347 22.2 120.867V69.0668C22.2 67.5868 23.1866 66.6002 24.6666 66.6002H39.96C40.7 66.6002 41.1935 66.8468 41.6866 67.3402L51.06 76.7136C51.5535 77.207 51.8 77.7002 51.8 78.4402V120.867Z" fill="black"/>
<path id="Vector_2" d="M95.4599 83.62C96.6933 83.8666 97.6799 83.8666 98.6665 83.8666C102.12 83.8666 105.326 82.6331 107.793 80.4131C111.246 77.4531 113.22 73.2597 113.22 68.8197C113.22 66.5997 112.48 64.3797 111.246 62.4063L110.013 60.4328C108.286 57.7194 106.559 55.0063 105.079 52.0463L100.639 43.1663C100.146 42.1797 99.4059 41.6863 98.4193 41.6863C97.4327 41.6863 96.6927 42.4263 96.1993 43.1663L92.7459 50.3197C91.0193 54.0197 89.0459 57.9663 86.3324 61.4197C84.8524 63.3931 84.1124 65.6131 83.8659 68.0797C83.3733 75.48 88.3064 82.14 95.4599 83.62ZM89.0465 68.5734C89.0465 67.0934 89.5399 65.86 90.5265 64.6269C93.2399 60.6803 95.4599 56.4869 97.433 52.5403L98.6665 49.8269L100.886 54.2669C102.366 57.4734 104.34 60.1869 106.066 63.1469L107.546 65.3669C108.533 66.6003 108.78 67.8334 108.78 69.3134C108.78 72.2734 107.3 74.9869 105.08 76.96C102.613 78.9334 99.6533 79.6734 96.6933 78.9334C92.0064 77.9466 88.7999 73.5066 89.0465 68.5734Z" fill="black"/>
<path id="Vector_3" d="M39.4662 81.3999H32.0662C30.5862 81.3999 29.5996 82.3865 29.5996 83.8665C29.5996 85.3465 30.5862 86.333 32.0662 86.333H39.4662C40.9462 86.333 41.9327 85.3465 41.9327 83.8665C41.9327 82.3865 40.9462 81.3999 39.4662 81.3999Z" fill="black"/>
<path id="Vector_4" d="M39.4662 93.7334H32.0662C30.5862 93.7334 29.5996 94.72 29.5996 96.2C29.5996 97.68 30.5862 98.6665 32.0662 98.6665H39.4662C40.9462 98.6665 41.9327 97.68 41.9327 96.2C41.933 94.72 40.9462 93.7334 39.4662 93.7334Z" fill="black"/>
<path id="Vector_5" d="M39.4662 106.067H32.0662C30.5862 106.067 29.5996 107.053 29.5996 108.533C29.5996 110.013 30.5862 111 32.0662 111H39.4662C40.9462 111 41.9327 110.013 41.9327 108.533C41.9327 107.053 40.9462 106.067 39.4662 106.067Z" fill="black"/>
<path id="Vector_6" d="M144.3 37.4934L125.307 18.5C123.087 16.0334 119.88 14.8 116.673 14.8H86.3331V7.4C86.3331 3.20657 83.1266 0 78.9331 0H69.0666C64.8731 0 61.6666 3.20657 61.6666 7.4V14.8C54.76 14.8 49.3331 20.2266 49.3331 27.1334V42.6676C47.993 42.1791 46.5668 41.9334 45.1397 41.9334H24.6666V34.5334C24.6666 30.34 21.46 27.1334 17.2666 27.1334H12.3334C8.14 27.1334 4.93343 30.34 4.93343 34.5334V42.4269C1.97343 43.4134 0 46.1266 0 49.3334V140.6C0 144.793 3.20657 148 7.4 148H66.6H135.667C142.573 148 148 142.573 148 135.667V46.1266C148 42.92 146.52 39.7134 144.3 37.4934ZM69.0666 59.6934V37C69.0666 35.52 70.0531 34.5334 71.5331 34.5334H110.753C112.727 34.5334 114.453 35.2734 115.933 36.7534L126.047 46.8669C127.527 48.1003 128.267 50.0734 128.267 52.0469V125.8C128.267 127.28 127.28 128.267 125.8 128.267H76.4666C74.9866 128.267 74 127.28 74 125.8V70.7934V70.5469V68.5734C74 66.6 73.26 64.8734 71.78 63.3934L70.3 61.9134L69.8066 61.42C69.3134 60.9266 69.0666 60.4334 69.0666 59.6934ZM4.93343 140.6V49.3334C4.93343 47.8534 5.92 46.8669 7.4 46.8669C8.88 46.8669 9.86657 45.8803 9.86657 44.4003V34.5337C9.86657 33.0537 10.8531 32.0671 12.3331 32.0671H17.2666C18.7466 32.0671 19.7331 33.0537 19.7331 34.5337V44.4C19.7331 45.88 20.7197 46.8666 22.1997 46.8666H45.1397C47.1131 46.8666 48.8397 47.6066 50.3197 49.0866L66.8463 65.6131C68.3263 66.8466 69.0663 68.8197 69.0663 70.7931V125.8V140.6C69.0663 142.08 68.0797 143.067 66.5997 143.067H7.4C5.92 143.067 4.93343 142.08 4.93343 140.6ZM143.067 135.667C143.067 139.86 139.86 143.067 135.667 143.067H73.6022C73.8595 142.3 74 141.472 74 140.6V132.802C74.7666 133.06 75.5948 133.2 76.4666 133.2H125.8C129.993 133.2 133.2 129.993 133.2 125.8V52.0466C133.2 48.84 131.72 45.6331 129.5 43.4131L119.387 33.3C117.167 30.8334 113.96 29.6 110.753 29.6H71.5331C67.3397 29.6 64.1331 32.8066 64.1331 37V55.7466L54.2666 45.88V27.1334C54.2666 22.94 57.4731 19.7334 61.6666 19.7334H64.1331C65.6131 19.7334 66.5997 18.7469 66.5997 17.2669V7.4C66.5997 5.92 67.5863 4.93343 69.0663 4.93343H78.9329C80.4128 4.93343 81.3994 5.92 81.3994 7.4V17.2666C81.3994 18.7466 82.386 19.7331 83.866 19.7331H116.673C118.646 19.7331 120.619 20.4731 121.853 21.9531L140.846 40.9466C142.326 42.18 143.066 44.1531 143.066 46.1266V135.667H143.067Z" fill="black"/>
<path id="Vector_7" d="M110.999 93.7334H86.3328C84.8528 93.7334 83.8662 94.72 83.8662 96.2C83.8662 97.68 84.8528 98.6665 86.3328 98.6665H110.999C112.479 98.6665 113.466 97.68 113.466 96.2C113.466 94.72 112.479 93.7334 110.999 93.7334Z" fill="black"/>
<path id="Vector_8" d="M81.4002 111H115.934C117.414 111 118.4 110.013 118.4 108.533C118.4 107.053 117.414 106.067 115.934 106.067H81.4002C79.9202 106.067 78.9336 107.053 78.9336 108.533C78.9336 110.013 79.9202 111 81.4002 111Z" fill="black"/>
</g>
</g>
</g>
</svg>
