<svg width="115" height="125" viewBox="0 0 115 125" fill="none" xmlns="http://www.w3.org/2000/svg">
<g id="&#208;&#154;&#209;&#131;&#208;&#183;&#208;&#190;&#208;&#178;&#208;&#189;&#208;&#190;&#208;&#185; &#209;&#128;&#208;&#181;&#208;&#188;&#208;&#190;&#208;&#189;&#209;&#130; &#208;&#186;&#208;&#176;&#209;&#128;&#209;&#130;&#208;&#184;&#208;&#189;&#208;&#186;&#208;&#176;">
<g id="Group">
<g id="Group_2">
<path id="Vector" d="M88.6696 23.374L78.5372 8.00464H60.96V28.017H88.6696V23.374ZM75.334 24.0145L74.1962 19.0836L76.5665 17.7988L74.9131 14.2186L69.8941 16.9364L71.5253 24.0149H64.655V12.0072H76.6348L84.5525 24.0145H75.334Z" fill="black"/>
<path id="Vector_2" d="M25.8623 50.0315C22.807 50.0315 20.3203 52.7254 20.3203 56.0353C20.3203 59.3453 22.807 62.0392 25.8623 62.0392C28.9177 62.0392 31.4043 59.3453 31.4043 56.0353C31.4043 52.7254 28.9177 50.0315 25.8623 50.0315ZM25.8623 58.0366C24.8444 58.0366 24.015 57.1402 24.015 56.0353C24.015 54.9305 24.8444 54.0341 25.8623 54.0341C26.8803 54.0341 27.7097 54.9305 27.7097 56.0353C27.7097 57.1402 26.8799 58.0366 25.8623 58.0366Z" fill="black"/>
<path id="Vector_3" d="M88.6699 50.0315C85.6146 50.0315 83.1279 52.7254 83.1279 56.0353C83.1279 59.3453 85.6146 62.0392 88.6699 62.0392C91.7253 62.0392 94.2119 59.3453 94.2119 56.0353C94.2119 52.7254 91.7257 50.0315 88.6699 50.0315ZM88.6699 58.0366C87.652 58.0366 86.8226 57.1402 86.8226 56.0353C86.8226 54.9305 87.652 54.0341 88.6699 54.0341C89.6879 54.0341 90.5173 54.9305 90.5173 56.0353C90.5173 57.1402 89.6879 58.0366 88.6699 58.0366Z" fill="black"/>
<path id="Vector_4" d="M96.06 102.064H115L114.488 99.6182C112.599 90.5985 104.847 84.0526 96.0596 84.0526C89.4535 84.0526 83.4684 87.8551 80.1745 94.059H47.289C45.3994 90.5006 42.6078 87.7672 39.3364 86.0538H49.3175L54.8595 90.0564H72.045V70.044H112.686V66.0414H97.7021C99.686 63.938 101.038 61.1505 101.454 58.0363H108.991C113.57 58.0363 114.533 54.7705 114.533 52.0325V34.0214C114.533 29.0602 110.796 24.6617 107.593 24.0751L100.209 22.0738C98.3491 21.5636 97.2738 20.7768 95.7166 18.85L86.4322 4.77122C84.0503 1.47091 81.322 0 77.5866 0H42.488C38.751 0 36.0223 1.47091 33.595 4.84098L24.4673 18.6999C22.8085 20.7693 21.5431 21.7098 20.0154 22.0418L8.85961 24.057C3.56161 25.2518 0 30.0604 0 36.0226V50.0312C0 54.37 3.38433 58.0363 7.38935 58.0363H13.0792C13.9807 64.8126 19.3617 70.0436 25.8623 70.0436H54.8595L49.3175 74.0462H0V78.0487H50.4367L55.9787 74.0462H68.3499V86.0534H55.9787L50.4367 82.0509H0V86.0534H23.2244C18.1425 88.651 14.2371 93.574 12.9775 99.6199L12.4678 102.063H31.4043V106.066H12.4654L12.9771 108.511C14.8668 117.531 22.618 124.077 31.4039 124.077C38.0101 124.077 43.9951 120.274 47.289 114.071H80.1764C83.47 120.274 89.4554 124.077 96.0615 124.077C104.858 124.077 112.61 117.531 114.492 108.509L114.998 106.066H96.06V102.064ZM88.6702 66.041C83.577 66.041 79.4335 61.5522 79.4335 56.0346C79.4335 50.517 83.577 46.0282 88.6702 46.0282C93.7634 46.0282 97.9069 50.517 97.9069 56.0346C97.9069 61.5518 93.7634 66.041 88.6702 66.041ZM13.0788 54.0329H7.38935C5.42175 54.0333 3.69467 52.1619 3.69467 50.0308V40.0244H7.38935V44.0269H11.084V40.0244C11.084 37.4427 9.77242 36.0218 7.38935 36.0218H3.69467C3.69467 31.0707 6.75197 28.6193 9.54121 27.9889L20.6842 25.9759C23.0948 25.4514 25.0605 24.0608 27.366 21.1748L36.5545 7.23437C38.2541 4.87881 39.8632 4.00256 42.488 4.00256H77.5866C80.2098 4.00256 81.8189 4.87923 83.4719 7.16671L92.8172 21.3253C94.6293 23.5825 96.3455 25.1438 99.305 25.954L106.831 27.9873C108.409 28.2814 110.838 31.0009 110.838 34.0209V36.0222H107.143V40.0248H110.838V52.0321C110.838 53.7509 110.579 54.0333 108.991 54.0333H101.453C100.552 47.257 95.1708 42.0261 88.6702 42.0261C82.1696 42.0261 76.7882 47.2575 75.8871 54.0333H60.9609V49.4706L70.4948 46.0286H75.7393V42.0261H71.7121L70.1623 33.6288L66.5398 34.4151L68.0675 42.6901L59.2575 45.8719L57.8978 45.1356L59.6086 41.4293L51.5509 34.8833L50.2835 28.0171H59.1136V8.00512H41.5364L31.4039 23.3745V28.0175H46.5147L47.8096 35.0317L41.1186 39.3822L36.5759 32.8203L33.6202 35.2216L40.1615 44.6716L49.7621 38.4316L54.9235 42.6262L52.9397 46.925L57.2659 49.2663V54.0333H38.6451C37.7435 47.257 32.3625 42.0261 25.8619 42.0261C19.3613 42.0261 13.9799 47.2571 13.0788 54.0329ZM35.5219 24.015L43.4396 12.0077H55.4193V24.015H35.5219ZM25.8623 66.041C20.7692 66.041 16.6256 61.5518 16.6256 56.0346C16.6256 50.517 20.7692 46.0282 25.8623 46.0282C30.9555 46.0282 35.099 50.517 35.099 56.0346C35.099 61.5526 30.9555 66.041 25.8623 66.041ZM34.8938 66.041C36.8777 63.9376 38.23 61.15 38.6455 58.0359H57.2663H60.9609H75.8871C76.301 61.15 77.6529 63.9376 79.6387 66.041H34.8938ZM110.16 110.068C107.886 115.916 102.206 120.075 96.0596 120.075C90.4807 120.075 85.4523 116.667 82.9362 111.179L82.4264 110.068H45.0371L44.5273 111.179C42.0112 116.666 36.9828 120.075 31.4039 120.075C25.2653 120.075 19.5867 115.916 17.3072 110.068H35.0986V98.0611H17.3057C19.5778 92.2136 25.2603 88.0547 31.4043 88.0547C36.9832 88.0547 42.0116 91.463 44.5277 96.9504L45.0375 98.0611H82.4268L82.9366 96.9504C85.4527 91.463 90.4811 88.0547 96.06 88.0547C102.199 88.0547 107.879 92.2132 110.159 98.0611H92.3653V110.068H110.16Z" fill="black"/>
<path id="Vector_5" d="M49.8773 102.063H46.1826V106.066H49.8773V102.063Z" fill="black"/>
<path id="Vector_6" d="M57.266 102.063H53.5713V106.066H57.266V102.063Z" fill="black"/>
<path id="Vector_7" d="M64.6556 78.0486H60.9609V82.0511H64.6556V78.0486Z" fill="black"/>
<path id="Vector_8" d="M12.931 66.0408H9.23633V70.0433H12.931V66.0408Z" fill="black"/>
<path id="Vector_9" d="M5.54233 66.0408H1.84766V70.0433H5.54233V66.0408Z" fill="black"/>
</g>
</g>
</g>
</svg>
