<svg width="160" height="160" viewBox="0 0 160 160" fill="none" xmlns="http://www.w3.org/2000/svg">
<g id="&#208;&#180;&#208;&#178;&#209;&#129;">
<g id="Group">
<g id="Group_2">
<path id="Vector" d="M139.355 85.1615H131.613V69.6778H119.491L104.008 59.3551H87.7421V43.8709H108.387V38.7095H46.4515V43.8709H67.0965V59.3545H50.658L32.5936 74.8382H18.0643V90.3218H5.1614V67.0971H0V131.614H5.1614V110.968H18.0649V131.614H32.8624L50.9268 141.936H80.0005V136.775H52.2995L36.1292 127.536V78.6068L52.5678 64.5164H102.444L116.129 73.6389V82.5808H121.29V74.8387H126.451V136.774H121.29V141.936H131.613V129.032H139.355V134.194H160V77.4194H139.355V85.1615ZM18.0649 105.807H5.1614V95.4837H18.0649V105.807ZM30.9678 126.452H23.2257V80.0001H30.9678V126.452ZM82.5807 59.3545H72.2579V43.8709H82.5807V59.3545ZM139.355 123.871H131.613V90.3223H139.355V123.871ZM144.516 82.5808H154.839V129.032H144.516V82.5808Z" fill="black"/>
<path id="Vector_2" d="M104.295 95.4838H85.015L97.9185 77.4194H73.2425L57.7578 108.387H73.9953L67.0406 132.738L104.295 95.4838ZM66.1112 103.226L76.434 82.5808H87.8867L74.9832 100.645H91.832L77.4734 115.004L80.841 103.226H66.1112Z" fill="black"/>
<path id="Vector_3" d="M36.1282 15.4836H20.6445V20.645H36.1282V15.4836Z" fill="black"/>
<path id="Vector_4" d="M15.4836 15.4836H0V20.645H15.4836V15.4836Z" fill="black"/>
<path id="Vector_5" d="M20.6458 20.645H15.4844V36.1287H20.6458V20.645Z" fill="black"/>
<path id="Vector_6" d="M20.6458 0H15.4844V15.4836H20.6458V0Z" fill="black"/>
<path id="Vector_7" d="M149.679 38.71V28.3872H144.517V38.71H149.678V43.8709H144.517V38.71H134.194V43.8714H144.517V54.1936H149.679V43.8714H160.001V38.71H149.679Z" fill="black"/>
<path id="Vector_8" d="M116.129 136.774H103.226V141.936H116.129V136.774Z" fill="black"/>
<path id="Vector_9" d="M98.0646 136.774H103.225V123.871H98.0641V136.774H85.1611V141.936H98.0641V154.839H103.225V141.936H98.0646V136.774Z" fill="black"/>
<path id="Vector_10" d="M154.839 144.516H149.677V149.677H144.517V154.839H149.677V160H154.839V154.839H149.678V149.678H154.839V154.839H160V149.677H154.839V144.516Z" fill="black"/>
</g>
</g>
</g>
</svg>
