<svg width="158" height="158" viewBox="0 0 158 158" fill="none" xmlns="http://www.w3.org/2000/svg">
<path id="&#208;&#180;&#208;&#184;&#208;&#176;&#208;&#179;&#208;&#189;&#208;&#190;&#209;&#129;&#209;&#130;&#208;&#184;&#208;&#186;&#208;&#176;" d="M31.9153 146.982C31.9153 149.739 31.3265 152.391 30.162 154.861C29.7954 155.642 29.0212 156.099 28.2103 156.099C27.9019 156.099 27.5913 156.035 27.2937 155.894C26.2154 155.387 25.7539 154.102 26.2607 153.023C27.1514 151.131 27.6021 149.096 27.6021 146.98C27.6021 139.146 21.2316 132.773 13.3989 132.773C10.7635 132.773 8.19285 133.498 5.9651 134.875C4.95151 135.5 3.62305 135.183 2.99764 134.169C2.37439 133.155 2.68709 131.826 3.70285 131.201C6.61208 129.408 9.96341 128.459 13.3989 128.459C23.6081 128.459 31.9153 136.769 31.9153 146.982ZM87.456 124.929C88.6486 124.929 89.6126 123.963 89.6126 122.772C89.6126 121.581 88.6486 120.614 87.456 120.614H38.7689C32.1805 114.267 23.2458 110.341 13.3989 110.341C10.3192 110.341 7.25905 110.725 4.30238 111.48C3.1486 111.775 2.45418 112.951 2.74748 114.103C3.04293 115.257 4.21827 115.954 5.37204 115.659C7.9772 114.992 10.6794 114.653 13.3989 114.653C31.2187 114.653 45.7131 129.155 45.7131 146.978C45.7131 149.17 45.491 151.362 45.0554 153.495C44.816 154.665 45.5686 155.804 46.7353 156.041C46.8798 156.071 47.0265 156.086 47.1688 156.086C48.1716 156.086 49.0709 155.383 49.2801 154.363C49.774 151.944 50.0263 149.461 50.0263 146.98C50.0263 138.696 47.2313 131.071 42.5796 124.927H87.456V124.929ZM158 87.4333C158 88.6242 157.036 89.5907 155.843 89.5907H153.057V155.843C153.057 157.033 152.093 158 150.901 158C149.708 158 148.744 157.033 148.744 155.843V89.5907H146.469V155.843C146.469 157.033 145.505 158 144.312 158C143.12 158 142.156 157.033 142.156 155.843V89.5907H57.0697C55.8771 89.5907 54.9131 88.6242 54.9131 87.4333C54.9131 86.2424 55.8771 85.2759 57.0697 85.2759H67.7383V72.5472H32.3401L57.0481 93.8732H62.198C88.4782 93.8732 95.7049 121.971 95.7739 122.256C95.8171 122.424 95.8365 122.599 95.8365 122.772V153.605C95.8365 154.796 94.8725 155.763 93.6799 155.763H59.0839C57.8913 155.763 56.9274 154.796 56.9274 153.605C56.9274 152.414 57.8913 151.448 59.0839 151.448H91.5233V150.214C87.8506 149.793 83.1018 146.734 83.1018 139.278C83.1018 131.822 87.8528 128.763 91.5233 128.342V123.05C91.3033 122.232 90.5464 119.678 89.0173 116.504C88.9591 116.52 88.9117 116.56 88.8513 116.571C88.6701 116.604 86.8996 116.914 84.3677 116.914C80.419 116.914 74.62 116.159 70.1386 112.42C66.274 109.195 64.1821 104.419 63.8651 98.2441C63.3173 98.216 62.7652 98.1923 62.198 98.1923H4.72075C3.52816 98.1923 2.56417 97.2258 2.56417 96.0349C2.56417 94.844 3.52816 93.8775 4.72075 93.8775H8.34166V78.8706C8.34166 76.2968 9.18704 74.1631 10.8498 72.5278C14.186 69.2528 19.6465 69.324 19.8751 69.3154H23.6383L17.4079 63.937L2.82943 68.707C2.60514 68.7782 2.3787 68.8127 2.15657 68.8127C1.24865 68.8127 0.405427 68.2345 0.107819 67.3263C-0.263114 66.1936 0.353669 64.9747 1.48803 64.6036L65.2776 43.7307C66.412 43.3596 67.6283 43.9788 67.9971 45.1093C68.368 46.2419 67.7513 47.4608 66.6169 47.8319L20.9987 62.7569L28.5898 69.3089H67.7383V58.688C67.7383 57.7948 68.4629 57.0699 69.3558 57.0699H82.6964C83.5892 57.0699 84.3138 57.7948 84.3138 58.688V69.3089H93.9969L95.623 58.4485C95.7437 57.6546 96.423 57.0699 97.2231 57.0699H139.208C140.008 57.0699 140.689 57.6546 140.808 58.4485L143.829 78.6246C143.961 79.5091 143.35 80.3333 142.468 80.4649C142.386 80.4778 142.307 80.4821 142.227 80.4821C141.44 80.4821 140.749 79.9061 140.629 79.1036L137.814 60.306H98.6185L95.8041 79.1036C95.6682 79.9881 94.8531 80.5922 93.9624 80.4649C93.0803 80.3311 92.4722 79.5091 92.6016 78.6246L93.5117 72.545H84.3117V85.2738H92.3644C91.9848 84.8854 91.7476 84.3568 91.7476 83.77C91.7476 82.5791 92.7116 81.6126 93.9042 81.6126H144.31C145.503 81.6126 146.467 82.5791 146.467 83.77C146.467 84.3568 146.229 84.8854 145.85 85.2738H155.841C157.036 85.2759 158 86.2424 158 87.4333ZM91.5233 145.837V132.717C90.0892 133.052 87.415 134.34 87.415 139.278C87.4128 144.214 90.087 145.502 91.5233 145.837ZM68.2041 98.7921C68.5772 103.336 70.1429 106.796 72.8839 109.089C77.3955 112.871 84.0421 112.729 86.7961 112.479C83.2528 106.82 77.4084 100.695 68.2041 98.7921ZM27.3865 72.5472H19.8427C19.7888 72.5515 15.4627 72.5148 13.1056 74.8405C12.0747 75.8567 11.5744 77.1727 11.5744 78.8641V93.871H52.0923L27.3865 72.5472ZM70.9732 84.5381H81.079V60.306H70.9732V84.5381ZM101.342 62.992L99.328 78.8641H118.215H137.103L135.088 62.992H118.215H101.342ZM76.0369 68.118C77.4516 68.118 78.5989 66.9703 78.5989 65.555C78.5989 64.1398 77.4516 62.992 76.0369 62.992C74.6221 62.992 73.4748 64.1398 73.4748 65.555C73.4748 66.9703 74.6221 68.118 76.0369 68.118ZM76.8693 69.9497V82.2189C76.8693 82.8143 77.3524 83.2976 77.9476 83.2976C78.5428 83.2976 79.0259 82.8143 79.0259 82.2189V69.9497C79.0259 69.3542 78.5428 68.871 77.9476 68.871C77.3524 68.871 76.8693 69.3542 76.8693 69.9497ZM74.1024 83.2976C74.6976 83.2976 75.1807 82.8143 75.1807 82.2189V69.9497C75.1807 69.3542 74.6976 68.871 74.1024 68.871C73.5072 68.871 73.0241 69.3542 73.0241 69.9497V82.2189C73.0241 82.8143 73.5072 83.2976 74.1024 83.2976ZM2.68062 53.4606V2.15741C2.68062 0.966519 3.64462 0 4.83721 0H150.901C152.093 0 153.057 0.966519 153.057 2.15741V78.8662C153.057 80.0571 152.093 81.0237 150.901 81.0237C149.708 81.0237 148.744 80.0571 148.744 78.8662V16.2194H80.0265V46.5137C80.0265 47.7046 79.0625 48.6711 77.87 48.6711C76.6774 48.6711 75.7134 47.7046 75.7134 46.5137V16.2194H6.99379V53.4606C6.99379 54.6515 6.0298 55.618 4.83721 55.618C3.64462 55.618 2.68062 54.6515 2.68062 53.4606ZM6.99379 4.31482V11.9046H148.744V4.31482H6.99379Z" fill="black"/>
</svg>
