<svg width="159" height="154" viewBox="0 0 159 154" fill="none" xmlns="http://www.w3.org/2000/svg">
<g id="&#209;&#128;&#208;&#176;&#208;&#183;&#208;&#178;&#208;&#176;&#208;&#187;">
<path id="Vector" d="M19.5867 41.7686C19.5867 42.8838 20.1819 43.9146 21.1476 44.4721C21.6308 44.7509 22.1695 44.8904 22.7085 44.8904C23.2475 44.8904 23.7862 44.7509 24.2694 44.4721L44.8648 32.5812C45.8305 32.0235 46.4257 30.9929 46.4257 29.8778C46.4257 28.7626 45.8305 27.7317 44.8648 27.1743L24.2694 15.2838C23.3034 14.726 22.1136 14.726 21.1476 15.2838C20.1819 15.8416 19.5867 16.8721 19.5867 17.9873V21.0331H3.12178C1.39752 21.0331 0 22.4309 0 24.1548V35.601C0 37.3249 1.39752 38.7228 3.12178 38.7228H19.5867V41.7686ZM6.24355 32.4792V27.2766H22.7085C24.4328 27.2766 25.8303 25.8788 25.8303 24.1548V23.3942L37.0603 29.8778L25.8303 36.3613V35.6007C25.8303 33.8767 24.4328 32.4789 22.7085 32.4789L6.24355 32.4792Z" fill="black"/>
<path id="Vector_2" d="M154.899 115.277H138.434V112.231C138.434 111.116 137.838 110.085 136.873 109.528C135.907 108.971 134.717 108.971 133.751 109.528L113.156 121.419C112.19 121.977 111.595 123.007 111.595 124.122C111.595 125.237 112.19 126.268 113.156 126.826L133.751 138.716C134.234 138.995 134.773 139.134 135.312 139.134C135.851 139.134 136.39 138.995 136.873 138.716C137.838 138.158 138.434 137.128 138.434 136.013V132.967H154.899C156.623 132.967 158.02 131.569 158.02 129.845V118.399C158.02 116.675 156.623 115.277 154.899 115.277ZM151.777 126.723H135.312C133.588 126.723 132.19 128.121 132.19 129.845V130.606L120.96 124.122L132.19 117.639V118.399C132.19 120.124 133.588 121.521 135.312 121.521H151.777V126.723Z" fill="black"/>
<path id="Vector_3" d="M114.908 100.153C116.632 100.153 118.03 98.7557 118.03 97.0314V85.3247H140.402C142.127 85.3247 143.524 83.9272 143.524 82.203V71.797C143.524 70.0728 142.127 68.6753 140.402 68.6753H118.03V56.9686C118.03 55.2443 116.632 53.8468 114.908 53.8468H108.146V17.4819C108.146 7.84225 100.304 0 90.6638 0H67.3577C57.718 0 49.8758 7.84225 49.8758 17.4819V53.8468H43.1109C41.3866 53.8468 39.9891 55.2443 39.9891 56.9686V68.6753H17.6198C15.8956 68.6753 14.498 70.0728 14.498 71.797V82.203C14.498 83.9272 15.8956 85.3247 17.6198 85.3247H39.9887V97.0314C39.9887 98.7557 41.3863 100.153 43.1105 100.153H49.8754V136.518C49.8754 146.158 57.7177 154 67.3574 154H90.6635C100.303 154 108.145 146.158 108.145 136.518V100.153H114.908ZM137.281 74.9188V79.0812H118.03V74.9188H137.281ZM20.7416 79.0812V74.9188H39.9887V79.0812H20.7416ZM46.2323 93.9096V60.0904H49.8754V93.9096H46.2323ZM68.9675 139.004C68.9737 138.994 68.9796 138.983 68.9859 138.972C71.851 133.886 71.851 127.566 68.9855 122.479C68.9828 122.475 68.98 122.47 68.9772 122.465C67.1843 119.273 67.1839 115.313 68.9769 112.121C68.9796 112.116 68.9824 112.111 68.9848 112.106C71.851 107.019 71.851 100.699 68.9848 95.6127C68.9814 95.6068 68.9779 95.6006 68.9744 95.5943C67.187 92.4087 67.185 88.4576 68.9685 85.2703C68.9741 85.2609 68.9793 85.2512 68.9845 85.2418C71.851 80.1544 71.8506 73.8338 68.9838 68.7464C67.1825 65.5497 67.1825 61.5777 68.9838 58.3807C71.8475 53.2991 71.851 46.9872 68.9939 41.9026C68.99 41.896 68.9866 41.8894 68.9828 41.8831C67.1822 38.6864 67.1822 34.7148 68.9845 31.5157C71.8458 26.4373 71.8503 20.1292 68.9987 15.047C68.9935 15.0379 68.9887 15.0289 68.9835 15.0199C67.4704 12.3345 67.2339 9.10414 68.2623 6.2439H74.5333C73.671 10.2235 74.2513 14.4656 76.2905 18.0848C76.2953 18.0931 76.2999 18.1018 76.3051 18.1101C78.0924 21.3027 78.0883 25.2625 76.2901 28.454C73.4275 33.5348 73.4243 39.8467 76.2804 44.9307C76.2842 44.9376 76.2877 44.9442 76.2915 44.9508C78.0924 48.1475 78.0924 52.1191 76.2912 55.3161C73.4244 60.4036 73.4244 66.7245 76.2912 71.8123C78.0924 75.0094 78.0924 78.9809 76.2915 82.1776C76.2881 82.1832 76.2849 82.1891 76.2818 82.195C73.4292 87.27 73.4271 93.569 76.2745 98.646C76.2804 98.6568 76.286 98.6672 76.2922 98.678C78.0911 101.871 78.0928 105.837 76.2985 109.032C76.2957 109.037 76.2929 109.042 76.2905 109.046C73.4244 114.134 73.4244 120.453 76.2905 125.54C76.2933 125.545 76.2964 125.55 76.2992 125.555C78.0935 128.75 78.0914 132.715 76.2926 135.908C76.2874 135.917 76.2818 135.928 76.2759 135.938C74.2471 139.552 73.6717 143.786 74.5333 147.757H68.263C67.2325 144.897 67.467 141.669 68.9675 139.004ZM81.7286 138.979C81.7342 138.969 81.7394 138.959 81.7453 138.949C84.5979 133.866 84.5934 127.558 81.7317 122.479C81.7293 122.475 81.7262 122.469 81.7234 122.464C79.9312 119.274 79.9308 115.314 81.7224 112.123C81.7258 112.118 81.729 112.112 81.7321 112.106C84.592 107.029 84.5972 100.724 81.748 95.6426C81.7418 95.6315 81.7359 95.6204 81.7297 95.6096C79.9287 92.4129 79.9287 88.4417 81.7297 85.245C81.7328 85.2394 81.7363 85.2339 81.739 85.228C84.5975 80.1433 84.5941 73.83 81.7304 68.7471C79.9294 65.55 79.9294 61.5781 81.7307 58.381C84.5944 53.2991 84.5975 46.9862 81.7401 41.9019C81.7366 41.8956 81.7328 41.8897 81.7297 41.8835C79.9291 38.6868 79.9291 34.7152 81.731 31.5161C84.5975 26.429 84.5975 20.1084 81.731 15.0213C81.7262 15.0126 81.7217 15.0043 81.7165 14.9956C80.2156 12.3151 79.9832 9.09547 81.0089 6.24355H87.2802C86.42 10.2138 86.9958 14.4452 89.0232 18.0588C89.0284 18.0678 89.0332 18.0768 89.0384 18.0858C90.8342 21.2728 90.8394 25.2302 89.0551 28.422C89.0488 28.4324 89.0429 28.4429 89.037 28.4536C86.1744 33.5345 86.1712 39.8464 89.0273 44.9303C89.0311 44.9373 89.0346 44.9439 89.0384 44.9505C90.8394 48.1472 90.8393 52.1191 89.0381 55.3158C86.1713 60.4033 86.1713 66.7242 89.0381 71.8123C90.8393 75.009 90.8394 78.9806 89.0384 82.1773C89.035 82.1835 89.0312 82.1898 89.028 82.196C86.1713 87.2804 86.174 93.5922 89.037 98.6738C89.0405 98.68 89.044 98.6863 89.0475 98.6925C90.8373 101.882 90.8369 105.84 89.0457 109.03C89.0426 109.035 89.0395 109.041 89.0367 109.046C86.1709 114.133 86.1709 120.453 89.0363 125.54C89.0391 125.544 89.0423 125.55 89.045 125.555C90.8397 128.749 90.838 132.715 89.0537 135.883C89.0475 135.893 89.0416 135.904 89.0353 135.915C86.9964 139.534 86.4165 143.777 87.2795 147.757H81.0089C79.9794 144.896 80.2156 141.664 81.7286 138.979ZM56.119 136.518V17.4819C56.119 13.425 58.2803 9.86377 61.5113 7.88769C61.1103 11.3615 61.7798 14.9405 63.5294 18.0588C63.5346 18.0678 63.5394 18.0768 63.5446 18.0858C65.3455 21.2825 65.3455 25.2541 63.5436 28.4533C60.6806 33.5341 60.6771 39.8464 63.5335 44.9303C63.5373 44.9373 63.5408 44.9439 63.5446 44.9505C65.3455 48.1472 65.3455 52.1191 63.5443 55.3158C60.6774 60.4033 60.6774 66.7245 63.5446 71.812C65.3407 74.9993 65.3459 78.9577 63.5606 82.1496C63.5543 82.1596 63.5488 82.1697 63.5432 82.1797C60.6771 87.2668 60.6771 93.5867 63.5432 98.6738C63.5467 98.68 63.5502 98.6863 63.5536 98.6925C65.3435 101.882 65.3431 105.84 63.5519 109.029C63.5488 109.035 63.5453 109.041 63.5425 109.046C60.6771 114.133 60.6771 120.453 63.5432 125.54C63.5457 125.544 63.5484 125.549 63.5509 125.554C65.3462 128.748 65.3442 132.715 63.5599 135.882C63.5536 135.893 63.5477 135.904 63.5415 135.914C61.7815 139.039 61.1076 142.628 61.5099 146.112C58.2799 144.136 56.119 140.575 56.119 136.518ZM101.902 136.518C101.902 141.692 98.3864 146.058 93.6195 147.359C92.7485 144.601 93.0294 141.546 94.461 139.004C94.4672 138.993 94.4731 138.983 94.4793 138.972C97.3444 133.885 97.3441 127.565 94.4783 122.479C94.4759 122.475 94.4728 122.469 94.47 122.465C92.6777 119.274 92.6774 115.314 94.4693 112.123C94.4724 112.118 94.4755 112.112 94.4783 112.107C97.3444 107.02 97.3444 100.7 94.4783 95.6131C94.4748 95.6072 94.4714 95.6009 94.4679 95.5947C92.6756 92.4008 92.6784 88.4365 94.4762 85.245C94.48 85.2387 94.4835 85.2325 94.4866 85.2262C97.3438 80.1419 97.341 73.829 94.4773 68.7471C92.676 65.5504 92.676 61.5784 94.4773 58.3814C97.341 53.2998 97.3444 46.9879 94.4873 41.9033C94.4835 41.8967 94.48 41.8901 94.4762 41.8838C92.6809 38.6972 92.6757 34.7402 94.4596 31.5487C94.4658 31.5379 94.4721 31.5272 94.478 31.5164C97.3392 26.438 97.3437 20.1299 94.4922 15.0477C94.487 15.0386 94.4821 15.0296 94.4769 15.0206C93.034 12.459 92.7502 9.40106 93.6195 6.64175C98.3864 7.94319 101.902 12.3092 101.902 17.483V136.518ZM111.786 60.0904V93.9096H108.146V60.0904H111.786Z" fill="black"/>
</g>
</svg>
