<svg width="113" height="134" viewBox="0 0 113 134" fill="none" xmlns="http://www.w3.org/2000/svg">
<g id="&#209;&#130;&#208;&#181;&#209;&#133;&#208;&#190;&#209;&#129;&#208;&#188;&#208;&#190;&#209;&#130;&#209;&#128;">
<g id="Group">
<g id="Group_2">
<path id="Vector" d="M102.727 81.7742V11.1289C102.727 7.34501 100.057 4.45161 96.5638 4.45161H69.8548C69.8548 2.00318 68.0057 0 65.7456 0H36.9818C34.7218 0 32.8727 2.00318 32.8727 4.45161H6.16364C2.67083 4.45161 0 7.34501 0 11.1289V126.868C0 130.652 2.67083 133.546 6.16364 133.546H86.291C101.084 133.546 113 120.636 113 104.611C113 95.3111 108.987 87.0615 102.727 81.7742ZM96.5638 8.90295C97.7965 8.90295 98.6183 9.79317 98.6183 11.1286V78.9179C97.309 78.1818 95.9354 77.56 94.5091 77.0636V17.8062C94.5091 15.3577 92.66 13.3546 90.3999 13.3546H69.8545V8.90295H96.5638ZM59.5961 105.516C59.5974 105.56 59.5993 105.605 59.6007 105.648C59.7733 110.998 61.2736 115.97 63.759 120.191H12.3273V17.8062H32.8727C32.8727 20.2546 34.7218 22.2578 36.9818 22.2578H65.7456C68.0057 22.2578 69.8548 20.2546 69.8548 17.8062H90.4001V76.014C90.1134 75.9663 89.8247 75.9251 89.5348 75.8873C89.5146 75.8847 89.4941 75.8823 89.4739 75.8797C89.2474 75.8508 89.0201 75.8249 88.7918 75.8022C88.7343 75.7965 88.677 75.791 88.6194 75.7858C88.4261 75.7678 88.2323 75.7522 88.0377 75.7389C87.967 75.7339 87.8959 75.7287 87.8251 75.7242C87.6369 75.7128 87.4481 75.7042 87.2589 75.6969C87.1898 75.6942 87.1209 75.6906 87.0518 75.6885C86.799 75.681 86.5457 75.6763 86.2912 75.6763C71.4985 75.6763 59.5822 88.5856 59.5822 104.611C59.5819 104.914 59.5877 105.215 59.5961 105.516ZM36.9818 4.45161H65.7456V6.67728V15.5802V17.8059H36.9818V15.5802V6.67728V4.45161ZM6.16364 129.094C4.93091 129.094 4.10917 128.204 4.10917 126.868V11.1289C4.10917 9.79343 4.93091 8.90321 6.16364 8.90321H32.8727V13.3546H12.3273C10.0672 13.3546 8.21811 15.3577 8.21811 17.8062V120.191C8.21811 122.639 10.0672 124.643 12.3273 124.643H66.9879C68.4872 126.338 70.1762 127.834 72.0183 129.094L6.16364 129.094ZM86.291 129.094C79.7618 129.094 73.9028 126.133 69.7869 121.377C69.7043 121.194 69.5923 121.02 69.4438 120.859C65.9794 116.689 63.9576 111.346 63.7159 105.747C63.7154 105.734 63.715 105.72 63.7145 105.706C63.6993 105.342 63.6911 104.977 63.6911 104.611C63.6911 91.0335 73.7583 80.1271 86.2912 80.1271C86.5558 80.1271 86.8195 80.1336 87.0826 80.1435C87.1067 80.1443 87.1305 80.1456 87.1546 80.1464C87.2141 80.1487 87.2735 80.1524 87.333 80.1553C87.508 80.1639 87.6826 80.1751 87.8569 80.1879C88.0156 80.2001 88.1745 80.2126 88.3332 80.2293C88.3553 80.2314 88.3775 80.234 88.3994 80.2364C89.5457 80.3613 90.6922 80.6034 91.8385 81.0176C92.078 81.1041 92.3179 81.1216 92.5574 81.0867C94.7154 81.763 96.8048 82.7959 98.8027 84.1895C104.894 88.5637 108.891 96.0563 108.891 104.611C108.891 118.188 98.8239 129.094 86.291 129.094Z" fill="black"/>
<path id="Vector_2" d="M99.8507 91.9236C98.8234 91.0334 97.5906 91.2559 96.9743 92.3688L85.469 110.175L77.4562 103.052C76.6345 102.162 75.1961 102.384 74.5798 103.275C73.758 104.165 73.9634 105.723 74.7852 106.391L84.647 115.071C84.8524 115.294 85.4687 115.517 85.8797 115.517C85.8797 115.517 86.0851 115.517 86.0851 115.739C86.7015 115.739 87.1124 115.294 87.5232 114.849L100.261 95.0395C101.083 93.9268 100.878 92.5913 99.8507 91.9236Z" fill="black"/>
<path id="Vector_3" d="M67.8003 73.45C71.6115 73.45 74.8385 70.6015 75.7567 66.7727H78.8949C81.9767 66.7727 84.2368 64.3243 84.4422 60.9857V52.3052C84.4422 48.9666 81.9767 46.5181 79.1003 46.5181H74.7241L66.773 34.499C65.5403 32.4959 63.4858 31.3829 61.2257 31.3829H52.3354C52.0539 31.2394 51.7274 31.1604 51.3639 31.1604C51.0003 31.1604 50.6741 31.2397 50.3924 31.3829H41.5021C39.242 31.3829 37.1875 32.4959 35.9548 34.499L28.0037 46.5181H23.8331C20.7513 46.5181 18.4912 49.1891 18.4912 52.3052V60.9857C18.4912 64.3243 20.7513 66.7727 23.8331 66.7727H26.9713C27.8896 70.6015 31.1163 73.45 34.9277 73.45C38.7388 73.45 41.9658 70.6015 42.8841 66.7727H59.8442C60.7625 70.6015 63.9892 73.45 67.8003 73.45ZM67.8003 68.9984C65.5403 68.9984 63.6912 66.9952 63.6912 64.5468C63.6912 62.0984 65.5403 60.0952 67.8003 60.0952C70.0604 60.0952 71.9095 62.0986 71.9095 64.547C71.9095 66.9955 70.0604 68.9984 67.8003 68.9984ZM63.2804 36.725L69.7089 46.5184H53.4186V35.6123H61.0203C62.0477 35.612 62.8694 36.0572 63.2804 36.725ZM39.0368 36.725C39.6532 36.0572 40.4749 35.612 41.2969 35.612H49.3097V46.5181H32.8094L39.0368 36.725ZM34.9277 68.9984C32.6676 68.9984 30.8185 66.9952 30.8185 64.5468C30.8185 62.0984 32.6676 60.0952 34.9277 60.0952C37.1877 60.0952 39.0368 62.0984 39.0368 64.5468C39.0368 66.9952 37.1877 68.9984 34.9277 68.9984ZM35.133 55.6438C35.0955 55.6438 35.0586 55.6459 35.0213 55.6464C34.99 55.6462 34.9592 55.6438 34.9277 55.6438C31.1163 55.6438 27.8896 58.4924 26.9713 62.3211H23.8331C23.2167 62.3211 22.6004 61.6534 22.6004 60.9857V52.3052C22.6004 51.6375 23.2167 50.9697 23.8331 50.9697H27.84C28.1125 51.1101 28.419 51.1922 28.764 51.1922H73.964C74.309 51.1922 74.6155 51.1101 74.8881 50.9697H79.1003C79.7166 50.9697 80.333 51.6375 80.333 52.3052V60.9857C80.333 61.6534 79.7166 62.3211 79.1003 62.3211H75.8131C74.7857 58.5372 72.1149 55.6438 68.2113 55.6438C68.1365 55.6438 68.0621 55.647 67.9877 55.6491C67.9253 55.6475 67.8632 55.6438 67.8003 55.6438C63.989 55.6438 60.7622 58.4924 59.8439 62.3211H43.1458C42.1187 58.5375 39.0368 55.6438 35.133 55.6438Z" fill="black"/>
<path id="Vector_4" d="M51.3639 84.5784H20.5457C19.3129 84.5784 18.4912 85.4686 18.4912 86.804C18.4912 88.1395 19.3129 89.0297 20.5457 89.0297H51.3639C52.5966 89.0297 53.4183 88.1395 53.4183 86.804C53.4183 85.4686 52.5966 84.5784 51.3639 84.5784Z" fill="black"/>
<path id="Vector_5" d="M51.3639 95.7073H20.5457C19.3129 95.7073 18.4912 96.5975 18.4912 97.9329C18.4912 99.2684 19.3129 100.159 20.5457 100.159H51.3639C52.5966 100.159 53.4183 99.2684 53.4183 97.9329C53.4183 96.5975 52.5966 95.7073 51.3639 95.7073Z" fill="black"/>
<path id="Vector_6" d="M51.3639 106.836H20.5457C19.3129 106.836 18.4912 107.726 18.4912 109.062C18.4912 110.397 19.3129 111.288 20.5457 111.288H51.3639C52.5966 111.288 53.4183 110.397 53.4183 109.062C53.4183 107.726 52.5966 106.836 51.3639 106.836Z" fill="black"/>
</g>
</g>
</g>
</svg>
