<svg width="121" height="107" viewBox="0 0 121 107" fill="none" xmlns="http://www.w3.org/2000/svg">
<g id="&#208;&#162;&#208;&#158;">
<path id="Vector" d="M80.483 36.8518L91.9479 41.0653C92.2083 41.1611 92.4744 41.2064 92.7361 41.2064C93.6923 41.2064 94.5894 40.5997 94.9312 39.6259L97.7022 31.7286C97.9114 31.1327 97.8805 30.4764 97.6167 29.9041C97.3529 29.3316 96.8777 28.8898 96.2957 28.6758L84.8308 24.4622C83.6181 24.0159 82.2829 24.6614 81.8478 25.9016L79.0767 33.7989C78.8676 34.3948 78.8984 35.0512 79.1622 35.6234C79.4258 36.196 79.901 36.6378 80.483 36.8518ZM85.4491 29.7612L92.5242 32.3614L91.3294 35.7661L84.2543 33.1659L85.4491 29.7612Z" fill="black"/>
<path id="Vector_2" d="M28.5222 99.5981C29.8726 99.5981 30.9673 98.4778 30.9673 97.0958C30.9673 95.7138 29.8726 94.5935 28.5222 94.5935C27.1719 94.5935 26.0771 95.7138 26.0771 97.0958C26.0771 98.4778 27.1719 99.5981 28.5222 99.5981Z" fill="black"/>
<path id="Vector_3" d="M79.6748 57.4377L80.3239 56.7734C83.3844 53.6413 86.959 51.1825 90.9487 49.4651L106.234 42.8856C106.234 42.8856 110.384 41.0536 111.312 40.5158C112.554 39.7953 113.785 38.8033 115.076 37.4824C122.628 29.7535 123.007 17.2912 115.939 9.11071C115.396 8.48222 114.571 8.19104 113.765 8.34538C112.959 8.49919 112.291 9.07465 112.006 9.86119L106.436 25.2172L102.279 23.6425L108.137 7.32918C108.419 6.54157 108.277 5.66009 107.762 5.0072C107.248 4.35431 106.435 4.02574 105.624 4.14269C97.7401 5.27451 91.3332 10.9798 89.0703 18.6384L79.4504 14.9939C78.8049 14.7494 78.0868 14.8093 77.4885 15.1573C76.8902 15.5055 76.4725 16.1061 76.3476 16.7985L74.1339 29.0584C73.0982 34.7955 70.6731 40.0873 67.0746 44.5409L46.6005 23.5897L48.0563 22.0999C48.9671 21.1677 48.9671 19.6567 48.0563 18.7246L46.5179 17.1501C51.2075 11.2585 57.2067 10.9678 61.569 11.8528C62.5306 12.0482 63.5099 11.6061 64.0175 10.7469C64.5251 9.88798 64.4536 8.79594 63.8382 8.01416C61.7789 5.39861 59.2172 3.35985 56.2254 1.95542C48.993 -1.44509 40.4614 -0.324933 34.3036 4.64999L33.0302 3.34686C32.1194 2.41472 30.6429 2.41472 29.7321 3.34686L15.5713 17.8394C14.667 18.7649 14.6594 20.2629 15.555 21.1977C16.3624 22.0407 15.9799 23.8963 14.7367 25.1686C13.4934 26.441 11.6803 26.8324 10.8566 26.0061C9.94314 25.0896 8.4791 25.0973 7.57501 26.0228L0.683114 33.0757C-0.227705 34.0079 -0.227705 35.5189 0.683114 36.451L15.7092 51.8287C16.1644 52.2947 16.7615 52.5278 17.3582 52.5278C17.955 52.5278 18.5517 52.2947 19.0073 51.8287L25.8992 44.7755C26.8007 43.853 26.8113 42.3605 25.9228 41.4246C25.1213 40.5805 25.5061 38.7274 26.746 37.4585C27.9856 36.1898 29.7964 35.7958 30.6212 36.616C31.5354 37.5256 32.994 37.5147 33.8955 36.5921L35.183 35.2744L55.766 56.3391L21.9491 90.9469C20.2809 92.6541 19.362 94.9241 19.362 97.339C19.362 99.7535 20.2809 102.023 21.9491 103.731C23.671 105.493 25.9329 106.374 28.195 106.374C30.4569 106.374 32.7188 105.493 34.4407 103.731L68.257 69.123L104.585 106.301C105.04 106.767 105.637 107 106.234 107C106.831 107 107.427 106.767 107.883 106.301L116.004 97.99C116.441 97.5423 116.687 96.9353 116.687 96.3023C116.687 95.6693 116.441 95.0623 116.004 94.6147L79.6748 57.4377ZM102.191 10.0484L97.9054 21.9853L93.4599 20.3011C94.7394 15.672 97.9699 11.9344 102.191 10.0484ZM54.2796 6.29336C54.6543 6.46918 55.02 6.65773 55.377 6.85874C50.639 7.47026 46.4839 9.81876 43.2086 13.7632L37.631 8.055C42.39 4.46781 48.8101 3.72183 54.2796 6.29336ZM31.3814 8.40956L43.1094 20.412L32.4962 31.2735L20.7683 19.2711L31.3814 8.40956ZM17.3582 46.7658L5.63029 34.7634L9.22408 31.0855L20.952 43.0879L17.3582 46.7658ZM23.4476 34.0832C22.6052 34.9453 21.967 35.9162 21.5283 36.9273L15.2562 30.5087C16.2435 30.0595 17.1916 29.4061 18.0343 28.5437C18.9764 27.5794 19.6675 26.4816 20.1044 25.3423L26.5768 31.9662C25.4628 32.4128 24.3895 33.1195 23.4476 34.0832ZM38.4806 31.8991L43.3024 26.9645L63.8864 48.0281L59.0636 52.9638L38.4806 31.8991ZM31.1425 100.355C30.3551 101.161 29.3082 101.605 28.1947 101.605C27.0813 101.605 26.0344 101.161 25.2472 100.355C23.622 98.6919 23.622 95.9854 25.2472 94.3222L68.2428 50.3204C73.6963 44.7395 77.3193 37.6868 78.7207 29.9256L80.4309 20.4549L107.002 30.5217C108.209 30.9792 109.55 30.3488 109.998 29.1138L114.796 15.8865C117.607 21.8485 116.562 29.2114 111.778 34.1073C110.789 35.1195 109.884 35.8573 109.012 36.363C108.47 36.6772 104.128 38.6136 104.128 38.6136L89.14 45.0651C84.5908 47.0233 80.5151 49.8268 77.0255 53.3981L31.1425 100.355ZM106.234 101.238L71.5551 65.7477L76.3766 60.8133L111.057 96.3026L106.234 101.238Z" fill="black"/>
</g>
</svg>
