<svg width="102" height="134" viewBox="0 0 102 134" fill="none" xmlns="http://www.w3.org/2000/svg">
<g id="&#209;&#133;&#208;&#190;&#208;&#180;&#208;&#190;&#208;&#178;&#208;&#176;&#209;&#143;">
<g id="&#209;&#133;&#208;&#190;&#208;&#180;&#208;&#190;&#208;&#178;&#208;&#176;&#209;&#143;_2">
<path id="Vector" d="M99.1475 71.6223H92.7345C92.8007 71.2244 92.8373 70.8156 92.8373 70.3972V65.1546C94.9982 63.103 96.5093 60.2468 96.9355 56.9925L98.5564 44.6119C99.047 40.8635 97.8648 37.0273 95.3936 34.3505L91.7559 30.4095L95.1648 29.9636C98.0056 29.5918 100.148 26.9738 100.148 23.8739C100.148 20.4916 97.6076 17.7402 94.4858 17.7402H91.0341C89.1769 17.7402 87.5308 18.7183 86.4975 20.2195L82.2936 10.2503C80.4051 5.76903 76.6314 2.43641 72.1988 1.3356C65.0261 -0.445199 36.7338 -0.445199 29.5607 1.3356C25.1284 2.43641 21.3547 5.76903 19.4665 10.2496L15.2626 20.2189C14.2293 18.718 12.5832 17.7402 10.7263 17.7402H7.27434C4.1525 17.7402 1.61246 20.4919 1.61246 23.8739C1.61246 26.9738 3.75475 29.5915 6.59557 29.9636L10.0043 30.4095L6.36621 34.3505C3.89527 37.0273 2.71307 40.8635 3.20343 44.6119L4.82459 56.9925C5.2505 60.2465 6.76134 63.1023 8.92164 65.1536V70.3972C8.92164 70.8156 8.95822 71.2244 9.02441 71.6223H2.61291C1.16971 71.6223 0 72.8895 0 74.4529V85.4699C0 87.0333 1.16971 88.3005 2.61291 88.3005H38.687V96.3773C38.687 97.9408 39.8568 99.208 41.3 99.208H44.1556V130.194C44.1556 131.757 45.3253 133.024 46.7685 133.024C48.2117 133.024 49.3814 131.757 49.3814 130.194V99.208H52.3804V130.194C52.3804 131.757 53.5502 133.024 54.9934 133.024C56.4366 133.024 57.6063 131.757 57.6063 130.194V99.208H60.4604C61.9036 99.208 63.0734 97.9408 63.0734 96.3773V88.3005H99.1475C100.591 88.3005 101.76 87.0333 101.76 85.4699V74.4529C101.76 72.8895 100.59 71.6223 99.1475 71.6223ZM87.6112 70.3972C87.6112 71.0725 87.104 71.6223 86.4804 71.6223H77.1979C76.5745 71.6223 76.0671 71.0728 76.0671 70.3972V68.4869H84.7135C85.7072 68.4869 86.6775 68.3541 87.6106 68.1069V70.3972H87.6112ZM10.3129 57.6036H91.4478C90.4781 60.6607 87.7839 62.8256 84.7141 62.8256H17.0463C13.9762 62.8256 11.2823 60.6611 10.3129 57.6036ZM15.7434 32.1988H86.0167L91.6984 38.3539C92.4741 39.1943 93.0089 40.2498 93.2655 41.383H8.49486C8.75151 40.2495 9.28628 39.194 10.062 38.3539L15.7434 32.1988ZM79.0684 51.9423L77.656 47.044H92.9595L92.3182 51.9423H79.0684ZM72.1808 47.0444L73.5932 51.9426H28.1669L29.5796 47.0444H72.1808ZM24.1044 47.0444L22.6917 51.9426H9.44219L8.80087 47.0444H24.1044ZM30.92 68.4869H70.8415V70.3972C70.8415 70.8156 70.8781 71.2244 70.9443 71.6223H30.8173C30.8834 71.2244 30.92 70.8156 30.92 70.3972V68.4869ZM90.598 23.8739C90.598 23.6135 90.7937 23.4015 91.0341 23.4015H94.4858C94.7261 23.4015 94.9218 23.6135 94.9218 23.8739C94.9218 24.1126 94.7569 24.3142 94.5383 24.3428L90.5983 24.8583V23.8739H90.598ZM24.2205 12.6013C25.4378 9.71181 27.871 7.56303 30.7284 6.85348C37.1321 5.2636 64.6286 5.26392 71.0314 6.85348C73.8891 7.56335 76.3223 9.71181 77.5399 12.6019L83.4172 26.5372H18.3438L24.2205 12.6013ZM6.83828 23.8739C6.83828 23.6135 7.03396 23.4015 7.27434 23.4015H10.726C10.9667 23.4015 11.1624 23.6135 11.1624 23.8739V24.8586L7.22238 24.3431C7.00347 24.3145 6.83828 24.1129 6.83828 23.8739ZM14.148 70.3972V68.1066C15.0814 68.3538 16.0523 68.4869 17.046 68.4869H25.6939V70.3972C25.6939 71.0725 25.1867 71.6223 24.5631 71.6223H15.2791C14.6552 71.6223 14.148 71.0728 14.148 70.3972ZM57.8475 93.5467H43.9129V88.3005H57.8475V93.5467ZM96.5346 82.6392H5.22582V77.2836H96.5346V82.6392Z" fill="black"/>
<path id="Vector_2" d="M87.4748 92.3438C87.0082 91.4679 86.1457 90.9285 85.212 90.9285C84.2786 90.9285 83.4157 91.4679 82.9492 92.3438L72.9966 111.018C72.5298 111.894 72.5298 112.973 72.9966 113.849C73.4632 114.725 74.3257 115.264 75.2594 115.264H77.809V130.194C77.809 131.757 78.9787 133.024 80.4219 133.024C81.8651 133.024 83.0348 131.757 83.0348 130.194V112.434C83.0348 110.87 81.8651 109.603 80.4219 109.603H79.7852L85.212 99.4204L90.6384 109.603H90.002C88.5588 109.603 87.3891 110.87 87.3891 112.434V130.194C87.3891 131.757 88.5588 133.024 90.002 133.024C91.4452 133.024 92.6149 131.757 92.6149 130.194V115.264H95.1643C96.0979 115.264 96.9605 114.725 97.427 113.849C97.8939 112.973 97.8939 111.894 97.427 111.018L87.4748 92.3438Z" fill="black"/>
<path id="Vector_3" d="M19.1073 92.3438C18.6407 91.4679 17.7782 90.9285 16.8445 90.9285C15.9108 90.9285 15.0483 91.4679 14.5817 92.3438L4.62943 111.018C4.16259 111.894 4.16259 112.973 4.62943 113.849C5.09598 114.725 5.95853 115.264 6.89221 115.264H9.44154V130.194C9.44154 131.757 10.6112 133.024 12.0544 133.024C13.4976 133.024 14.6674 131.757 14.6674 130.194V112.434C14.6674 110.87 13.4976 109.603 12.0544 109.603H11.4181L16.8445 99.4204L22.2709 109.603H21.6345C20.1913 109.603 19.0216 110.87 19.0216 112.434V130.194C19.0216 131.757 20.1913 133.024 21.6345 133.024C23.0777 133.024 24.2474 131.757 24.2474 130.194V115.264H26.7968C27.7305 115.264 28.593 114.725 29.0596 113.849C29.5264 112.973 29.5264 111.894 29.0596 111.018L19.1073 92.3438Z" fill="black"/>
</g>
</g>
</svg>
