<svg width="133" height="157" viewBox="0 0 133 157" fill="none" xmlns="http://www.w3.org/2000/svg">
<g id="&#209;&#141;&#208;&#187;&#208;&#181;&#208;&#186;&#209;&#130;&#209;&#128;&#208;&#184;&#208;&#186;">
<path id="Vector" d="M76.0385 37.199V18.5995C76.0385 16.7866 74.5691 15.3171 72.7561 15.3171H16.9582C15.1452 15.3171 13.6758 16.7866 13.6758 18.5995V37.199C13.6758 39.0119 15.1452 40.4813 16.9582 40.4813H72.7561C74.5691 40.4813 76.0385 39.0116 76.0385 37.199ZM69.4737 33.9166H20.2405V21.8819H69.4737V33.9166Z" fill="black"/>
<path id="Vector_2" d="M61.8772 54.571C52.4925 45.1859 37.2218 45.1867 27.8371 54.571C18.4527 63.9557 18.4527 79.2261 27.8371 88.6104C32.5294 93.3027 38.6934 95.6489 44.8573 95.6489C51.0209 95.6489 57.1849 93.3027 61.8772 88.6104C71.2619 79.2257 71.2619 63.9557 61.8772 54.571ZM57.2348 59.2126C63.2664 65.2446 63.9637 74.6169 59.3345 81.426L35.0215 57.1134C37.9782 55.1031 41.4163 54.094 44.857 54.094C49.34 54.094 53.8226 55.8004 57.2348 59.2126ZM32.4791 83.9687C26.4475 77.9368 25.7502 68.5645 30.3795 61.7554L54.6924 86.0684C47.8837 90.6973 38.5107 90.0003 32.4791 83.9687Z" fill="black"/>
<path id="Vector_3" d="M126.662 15.9582V3.28238C126.662 1.46941 125.192 0 123.379 0C121.566 0 120.097 1.46941 120.097 3.28238V15.9582C116.893 17.2595 114.627 20.404 114.627 24.0697V50.8747C114.627 52.6877 116.096 54.1571 117.909 54.1571H120.097V120.201C120.097 136.872 106.534 150.435 89.8629 150.435C73.6085 150.435 60.3145 137.539 59.6606 121.443H71.6201V123.336C71.6201 132.849 79.36 140.589 88.873 140.589C98.3861 140.589 106.126 132.849 106.126 123.336V54.1571H108.314C110.127 54.1571 111.596 52.6877 111.596 50.8747V24.0697C111.596 20.404 109.33 17.2595 106.126 15.9582V3.28238C106.126 1.46941 104.656 0 102.843 0C101.03 0 99.5608 1.46941 99.5608 3.28238V15.9582C96.3565 17.2595 94.0906 20.404 94.0906 24.0697V50.8747C94.0906 52.6877 95.56 54.1571 97.373 54.1571H99.5608V123.336C99.5608 129.23 94.7664 134.024 88.873 134.024C82.9797 134.024 78.1849 129.23 78.1849 123.336V121.072C84.7774 119.574 89.7144 113.67 89.7144 106.631V14.8119C89.7144 6.64464 83.0698 0 74.9025 0H14.8119C6.64464 0 0 6.64464 0 14.8119V106.631C0 114.798 6.64464 121.443 14.8119 121.443H53.0874C53.7446 141.161 69.988 157 89.8632 157C110.154 157 126.662 140.492 126.662 120.201V54.1571H128.85C130.663 54.1571 132.132 52.6877 132.132 50.8747V24.0697C132.132 20.404 129.866 17.2595 126.662 15.9582ZM105.031 24.0697V47.5924H100.655V24.0697C100.655 22.8633 101.636 21.8818 102.843 21.8818C104.05 21.8818 105.031 22.8633 105.031 24.0697ZM6.56476 106.631V14.8119C6.56476 10.2644 10.2644 6.56476 14.8119 6.56476H74.9025C79.4501 6.56476 83.1497 10.2644 83.1497 14.8119V106.631C83.1497 111.178 79.4497 114.878 74.9025 114.878H14.8119C10.2644 114.878 6.56476 111.178 6.56476 106.631ZM125.567 24.0697V47.5924H121.191V24.0697C121.191 22.8633 122.173 21.8818 123.379 21.8818C124.586 21.8818 125.567 22.8633 125.567 24.0697Z" fill="black"/>
<path id="Vector_4" d="M76.5853 110.502V109.681H77.4059C79.2189 109.681 80.6883 108.212 80.6883 106.399C80.6883 104.586 79.2189 103.116 77.4059 103.116H76.5853V102.296C76.5853 100.483 75.1159 99.0132 73.303 99.0132C71.49 99.0132 70.0206 100.483 70.0206 102.296V103.116H69.2004C67.3874 103.116 65.918 104.586 65.918 106.399C65.918 108.212 67.3874 109.681 69.2004 109.681H70.0206V110.502C70.0206 112.314 71.49 113.784 73.303 113.784C75.1159 113.784 76.5853 112.314 76.5853 110.502Z" fill="black"/>
<path id="Vector_5" d="M61.196 103.116H52.9904C51.1774 103.116 49.708 104.586 49.708 106.399C49.708 108.212 51.1774 109.681 52.9904 109.681H61.196C63.0089 109.681 64.4784 108.212 64.4784 106.399C64.4784 104.586 63.0086 103.116 61.196 103.116Z" fill="black"/>
</g>
</svg>
