<svg width="141" height="141" viewBox="0 0 141 141" fill="none" xmlns="http://www.w3.org/2000/svg">
<g id="Group">
<g id="Group_2">
<g id="Group_3">
<path id="Vector" d="M138.062 70.4999C139.678 70.4999 141 69.178 141 67.5623C141 65.9466 139.678 64.6247 138.062 64.6247H117.5V46.9997H138.062C139.678 46.9997 141 45.6778 141 44.0621C141 42.4464 139.678 41.1246 138.062 41.1246H117.5V31.1081C117.5 26.9075 114.092 23.5293 109.891 23.4999H93.9995V2.93759C93.9997 1.32187 92.6779 0 91.0624 0C89.4467 0 88.1248 1.32187 88.1248 2.93759V23.5001H70.4999V2.93759C70.4999 1.32187 69.178 0 67.5623 0C65.9466 0 64.6247 1.32187 64.6247 2.93759V23.5001H46.9997V2.93759C47 1.32187 45.6781 0 44.0624 0C42.4467 0 41.1248 1.32187 41.1248 2.93759V23.5001H31.1081C26.9075 23.5001 23.4999 26.9075 23.4999 31.1083V38.1878H2.93759C1.32187 38.1875 0 39.5094 0 41.1248C0 42.7405 1.32187 44.0624 2.93759 44.0624H23.5001V61.6874H2.93759C1.32187 61.6874 0 63.0093 0 64.625C0 66.2407 1.32187 67.5626 2.93759 67.5626H23.5001V85.1875H2.93759C1.32187 85.1872 0 86.5091 0 88.1248C0 89.7405 1.32187 91.0624 2.93759 91.0624H23.5001V109.892C23.5001 114.092 26.9075 117.47 31.1083 117.5H47.0003V138.062C47.0003 139.678 48.3222 141 49.9379 141C51.553 141 52.8749 139.678 52.8749 138.062V117.5H70.4999V138.062C70.4999 139.678 71.8217 141 73.4375 141C75.0532 141 76.375 139.678 76.375 138.062V117.5H94V138.062C94 139.678 95.3219 141 96.9376 141C98.5533 141 99.8752 139.678 99.8752 138.062V117.5H109.892C114.092 117.5 117.471 114.092 117.5 109.891V93.9995H138.063C139.678 93.9995 141 92.6776 141 91.0619C141 89.4467 139.678 88.1248 138.062 88.1248H117.5V70.4999H138.062ZM111.654 109.892H111.625C111.625 110.832 110.861 111.625 109.892 111.625H31.1081C30.1682 111.625 29.375 110.861 29.375 109.892V31.1081C29.375 30.1682 30.1387 29.375 31.1081 29.375H109.921C110.861 29.375 111.654 30.1387 111.654 31.1081V109.892Z" fill="black"/>
<path id="Vector_2" d="M90.005 35.25H50.9949C42.3 35.25 35.25 42.3 35.25 50.9949V90.0047C35.2795 98.6999 42.3 105.75 50.9949 105.75H90.0047C98.6999 105.75 105.75 98.6999 105.75 90.005V50.9949C105.72 42.3 98.6999 35.25 90.005 35.25ZM99.875 90.005C99.875 95.4687 95.4393 99.875 90.005 99.875H50.9949C45.5311 99.875 41.1249 95.4687 41.1249 90.005V50.9949C41.1544 45.5311 45.5606 41.1249 50.9949 41.1249H89.9755C95.4393 41.1249 99.8455 45.5311 99.875 50.9949V90.005Z" fill="black"/>
</g>
</g>
</g>
</svg>
