<svg width="117" height="179" viewBox="0 0 117 179" fill="none" xmlns="http://www.w3.org/2000/svg">
<path id="&#208;&#178;&#209;&#139;&#209;&#133;&#208;&#187;&#208;&#190;&#208;&#191;" d="M115.974 50.7097L94.8788 29.5454L107.973 16.4093C108.629 15.7506 108.998 14.8574 108.998 13.926C108.998 12.9945 108.629 12.1013 107.973 11.4427L97.5925 1.0287C96.2253 -0.342899 94.0091 -0.342899 92.642 1.0287L79.5487 14.1648L74.8884 9.48927C73.5213 8.11767 71.3051 8.11767 69.938 9.48927C68.6035 10.8281 68.5755 12.9766 69.8462 14.354L11.6442 72.7465C10.2713 71.4713 8.12975 71.4994 6.79529 72.8382C5.42816 74.2098 5.42816 76.4332 6.79529 77.8048L19.6727 90.7243L12.2214 98.2C8.56886 101.864 6.55726 106.736 6.55726 111.919C6.55726 117.101 8.56847 121.973 12.2214 125.638L24.8332 138.291C24.8546 138.312 24.92 138.378 24.92 138.499C24.92 138.618 24.8569 138.681 24.8363 138.702L1.02535 162.591C-0.341782 163.962 -0.341782 166.186 1.02535 167.557L11.4054 177.971C12.0888 178.657 12.9849 179 13.8806 179C14.7764 179 15.6721 178.657 16.3559 177.971L42.0295 152.214C45.682 148.549 47.6932 143.678 47.6921 138.496C47.6913 133.315 45.6793 128.443 42.0268 124.779L29.4149 112.126C29.2994 112.01 29.2994 111.828 29.4149 111.712L35.0036 106.105L47.8819 119.025C48.5653 119.711 49.461 120.054 50.3571 120.054C51.2528 120.054 52.149 119.711 52.8323 119.025C54.1668 117.686 54.1948 115.538 52.9241 114.16L111.126 55.7676C111.796 56.3896 112.647 56.7045 113.5 56.7045C114.396 56.7045 115.292 56.3615 115.975 55.6759C117.342 54.3047 117.342 52.0813 115.974 50.7097ZM95.1172 8.47862L100.547 13.926L89.9288 24.5788L84.4988 19.1314L95.1172 8.47862ZM24.4641 106.746C21.6206 109.598 21.6206 114.24 24.4641 117.093L37.0759 129.746C41.8864 134.572 41.8875 142.423 37.0786 147.248L13.8799 170.522L8.45023 165.075L29.7856 143.669C32.6276 140.818 32.6264 136.178 29.7829 133.325L17.1711 120.672C14.8409 118.335 13.5578 115.226 13.5578 111.92C13.5578 108.614 14.8409 105.506 17.1711 103.167L24.6224 95.6917L30.0524 101.139L24.4641 106.746ZM47.9776 109.189L16.5993 77.7084L74.792 19.3257L106.17 50.8068L47.9776 109.189Z" fill="black"/>
</svg>
