<svg width="134" height="134" viewBox="0 0 134 134" fill="none" xmlns="http://www.w3.org/2000/svg">
<g id="&#208;&#186;&#208;&#190;&#209;&#128;&#208;&#190;&#208;&#191;&#208;&#186;&#208;&#176;">
<g id="Group">
<g id="Group_2">
<path id="Vector" d="M67 0C29.9982 0 0 29.9958 0 67C0 104.002 29.9982 134 67 134C104.004 134 134 104.002 134 67C134 29.9958 104.004 0 67 0ZM67 127.3C33.7502 127.3 6.7 100.25 6.7 67C6.7 33.7502 33.7502 6.7 67 6.7C100.25 6.7 127.3 33.7502 127.3 67C127.3 100.25 100.25 127.3 67 127.3Z" fill="black"/>
</g>
</g>
<g id="Group_3">
<g id="Group_4">
<path id="Vector_2" d="M97.1504 33.5V63.65H81.5171V33.5H74.8171V63.65H59.1839V33.5H52.4839V63.65H36.8504V33.5H30.1504V67C30.1504 68.8514 31.649 70.35 33.5004 70.35H52.4836V100.5H59.1836V70.35H74.8169V100.5H81.5169V70.35H97.1504V100.5H103.85V33.5H97.1504Z" fill="black"/>
</g>
</g>
</g>
</svg>
