<svg width="122" height="110" viewBox="0 0 122 110" fill="none" xmlns="http://www.w3.org/2000/svg">
<g id="&#208;&#191;&#208;&#190;&#208;&#187;&#208;&#184;&#209;&#128;&#208;&#190;&#208;&#178;&#208;&#186;&#208;&#176;">
<path id="Vector" d="M30.8811 0.33201C29.0257 1.17074 28.4665 2.44154 28.4665 5.6948V8.05849L25.6962 8.16015C22.6971 8.2364 22.1125 8.46515 20.9942 9.99011C20.2571 10.9813 20.2571 13.3704 20.9942 14.3617C22.1125 15.8866 22.6971 16.1154 25.6708 16.1916L28.4157 16.2933L28.5174 19.0382C28.5936 22.0119 28.8224 22.5965 30.3473 23.7148C31.3385 24.4518 33.7277 24.4518 34.7189 23.7148C36.2438 22.5965 36.4726 22.0119 36.5488 19.0382L36.6505 16.2933L39.3954 16.1916C41.7083 16.1408 42.2674 16.0391 42.852 15.5816C44.1991 14.5904 44.6057 13.7771 44.6057 12.1759C44.6057 10.5747 44.1991 9.76136 42.852 8.77014C42.2674 8.31265 41.7083 8.21099 39.3954 8.16015L36.6505 8.05849L36.5488 5.31356C36.4726 2.33988 36.2438 1.75531 34.7697 0.662418C33.9056 0.0270176 31.8977 -0.150896 30.8811 0.33201Z" fill="black"/>
<path id="Vector_2" d="M76.7564 0.357414C67.8353 1.78072 59.9818 7.601 55.8135 15.912C49.8407 27.8576 53.2465 42.6243 63.8958 50.8591C70.7073 56.1202 79.4759 58.0519 87.6853 56.1202C90.0235 55.5865 90.0744 55.5865 90.4556 56.0694C97.8008 65.0413 106.163 74.7248 106.849 75.0552C108.45 75.8177 109.873 75.5381 111.602 74.1402C112.136 73.7082 112.644 73.4032 112.695 73.454C113.152 73.9623 113.686 75.5381 113.686 76.3514C113.686 77.7239 113.228 78.5118 110.966 81.1042C107.256 85.3741 106.061 87.5599 105.807 90.7115C105.477 94.651 106.722 97.3451 110.712 101.259C112.339 102.86 113.635 104.335 113.711 104.69C113.762 105.046 113.889 105.783 113.965 106.342C114.118 107.461 114.677 108.325 115.745 109.113C116.736 109.85 119.125 109.85 120.116 109.113C121.921 107.791 122.378 105.834 121.641 102.911C121.031 100.522 120.218 99.3021 117.168 96.176C115.668 94.6256 114.296 93.126 114.143 92.821C113.406 91.3723 114.016 90.0253 116.939 86.6449C120.726 82.2988 121.819 80.0622 121.819 76.6056C121.844 74.2419 121.184 72.0053 119.837 69.7433C119.354 68.9299 118.947 68.2437 118.947 68.1929C118.947 68.142 119.481 67.6083 120.116 67.0237C121.946 65.3463 122.454 63.618 121.59 61.9151C121.362 61.483 117.727 57.0098 113.559 52.0028L105.934 42.8785L106.951 40.6673C109.365 35.4824 110.28 29.9163 109.543 24.7568C108.221 15.4546 102.706 7.57558 94.5984 3.33109C88.9306 0.382835 82.9833 -0.608391 76.7564 0.357414ZM86.1603 8.69389C91.4214 10.1426 95.5134 13.0654 98.3854 17.4624C100.622 20.8682 101.537 24.0198 101.537 28.4422C101.537 31.0092 101.41 32.0258 100.927 33.7287C100.597 34.8978 100.241 35.8128 100.139 35.762C100.037 35.7112 97.3179 32.5341 94.0901 28.6709C88.219 21.6561 87.4057 20.8173 85.5249 19.8515C80.0604 17.0812 72.9694 20.5378 71.2919 26.7647C70.7327 28.8488 70.9107 30.9584 71.8256 32.9916C72.2577 34.0083 74.291 36.6516 78.2559 41.4298C82.8308 46.9196 83.9745 48.4192 83.6441 48.5717C82.9325 48.8767 79.6538 48.775 77.7222 48.4192C72.1306 47.3263 67.3524 44.1493 64.2771 39.4219C62.0405 35.9907 61.1255 32.8646 61.1255 28.4422C61.1255 23.9944 62.0405 20.8936 64.3025 17.4116C67.3016 12.8113 71.9781 9.6597 77.5188 8.46514C79.5521 8.03307 84.1778 8.16015 86.1603 8.69389ZM97.2163 45.1151C105.324 54.824 111.983 62.8555 112.034 62.9826C112.11 63.1859 109.365 65.5496 109.06 65.5496C108.831 65.5242 79.73 30.5517 79.3488 29.8146C78.5355 28.2897 80.1113 26.663 81.8396 27.2222C82.2462 27.3493 87.7869 33.7795 97.2163 45.1151Z" fill="black"/>
<path id="Vector_3" d="M22.6457 28.8488C19.5704 29.6621 16.5204 31.9496 15.1226 34.4658C14.7413 35.152 13.5468 37.6936 12.4793 40.1336L10.4968 44.5814L6.53193 44.7085C2.23661 44.8355 1.85537 44.9626 0.660818 46.5892C-0.0762482 47.5805 -0.0762482 49.9696 0.660818 50.9608C1.67746 52.3587 2.41453 52.6891 4.67655 52.8416L6.78609 52.9687L3.38034 60.5935L0 68.2183L0.0508321 86.0096L0.12708 103.801L0.991226 105.402C1.95704 107.181 2.74493 107.944 4.67655 108.96L5.97277 109.646H14.233H22.4932L23.7894 108.96C25.7211 107.944 26.5089 107.181 27.4748 105.402L28.3389 103.801L28.4152 98.6413L28.5168 93.5073H48.7988H69.0808L69.1825 98.6413L69.2588 103.801L70.1229 105.402C71.0887 107.181 71.8766 107.944 73.8082 108.96L75.1044 109.646H83.3647H91.6249L93.2261 108.782C95.0052 107.817 95.7677 107.029 96.7843 105.097L97.4706 103.801V87.3566C97.4706 71.1666 97.4706 70.9124 96.9368 70.2262C95.9456 68.8791 95.1323 68.4725 93.5311 68.4725C91.9299 68.4725 91.1166 68.8791 90.1253 70.2262C89.617 70.887 89.5916 71.3191 89.5154 78.156L89.4391 85.3741H48.7988H8.13314V77.6731V69.972L10.1156 65.5242L12.098 61.1018L35.8621 60.9747C58.1011 60.8477 59.6515 60.8222 60.4394 60.3902C62.9047 59.0431 63.0827 55.4086 60.7952 53.6549L59.9056 52.9687L37.8699 52.8416L15.8342 52.7145L18.9604 45.6234C20.6887 41.7094 22.3661 38.2274 22.6711 37.897C23.8657 36.6007 24.1198 36.5753 35.3283 36.5753C46.9435 36.5753 46.918 36.5753 48.1888 34.8979C48.7988 34.11 48.9259 33.7033 48.9259 32.5088C48.9259 31.3142 48.7988 30.9075 48.1888 30.1196C46.918 28.4422 46.9943 28.4422 34.8962 28.4676C26.2294 28.4676 23.7386 28.5438 22.6457 28.8488ZM20.3328 97.5739V101.64H14.233H8.13314V97.5739V93.5073H14.233H20.3328V97.5739ZM89.4645 97.5739V101.64H83.3647H77.2648V97.5739V93.5073H83.3647H89.4645V97.5739Z" fill="black"/>
<path id="Vector_4" d="M18.6789 69.4636C16.2136 70.5565 15.5273 73.8098 17.3065 75.8431C18.3739 77.0376 19.4414 77.2918 22.9234 77.1901C26.1258 77.1139 26.6596 76.9105 27.8033 75.3602C28.5404 74.3689 28.5404 71.9798 27.8033 70.9886C26.6342 69.4128 26.1513 69.2349 22.6693 69.1587C20.3564 69.1332 19.2127 69.2095 18.6789 69.4636Z" fill="black"/>
<path id="Vector_5" d="M39.0132 69.4639C37.3103 70.2009 36.3445 72.158 36.7003 74.0642C36.929 75.2587 38.1998 76.6566 39.3436 76.987C39.9536 77.1649 43.4101 77.2412 49.3575 77.1904C58.0498 77.1141 58.4564 77.0887 59.1173 76.5804C60.4643 75.5891 60.871 74.7758 60.871 73.1746C60.871 71.5734 60.4643 70.7601 59.1173 69.7689C58.4564 69.2605 58.0752 69.2351 49.1033 69.1843C41.7327 69.1335 39.6231 69.1843 39.0132 69.4639Z" fill="black"/>
<path id="Vector_6" d="M71.5451 69.4636C69.0798 70.5565 68.3936 73.8098 70.1727 75.8431C71.2401 77.0376 72.3076 77.2918 75.7896 77.1901C78.3058 77.1393 78.865 77.0376 79.4495 76.5801C80.7966 75.5889 81.2032 74.7756 81.2032 73.1744C81.2032 71.5732 80.7966 70.7599 79.4495 69.7686C78.8396 69.3111 78.3312 69.2349 75.5355 69.1587C73.2226 69.1332 72.0789 69.2095 71.5451 69.4636Z" fill="black"/>
</g>
</svg>
