<svg width="121" height="121" viewBox="0 0 121 121" fill="none" xmlns="http://www.w3.org/2000/svg">
<g id="&#209;&#128;&#209;&#131;&#209;&#135;&#208;&#189;&#208;&#190;&#208;&#181; &#209;&#131;&#208;&#191;&#209;&#128;&#208;&#176;&#208;&#178;&#208;&#187;&#208;&#181;&#208;&#189;&#208;&#184;&#208;&#181;">
<g id="Group">
<g id="Group_2">
<path id="Vector" d="M107.868 48.7901C106.697 44.0342 104.817 39.5065 102.267 35.291L111.56 25.9994L95.001 9.44019L85.7073 18.7338C81.4956 16.1829 76.9662 14.3035 72.2099 13.1327V0H48.7905V13.1323C44.0326 14.3052 39.5048 16.1829 35.2931 18.733L25.9994 9.43935L9.43977 25.9994L18.7334 35.291C16.1808 39.5065 14.3014 44.0342 13.1323 48.7901H0V72.2095H13.1323C14.3035 76.9654 16.1829 81.4931 18.7334 85.7086L9.43977 95.0001L25.999 111.559L35.2906 102.268C39.504 104.819 44.0317 106.698 48.7897 107.869V121H72.2091V107.867C76.967 106.694 81.4948 104.817 85.7082 102.266L94.9997 111.558L111.559 94.9985L102.265 85.7069C104.818 81.4935 106.697 76.9658 107.866 72.2078H120.999V72.2099H121V48.7905L107.868 48.7901ZM117.097 68.3062H104.731L104.403 69.8538C103.267 75.2209 101.164 80.2911 98.1502 84.9242L97.2896 86.2494L106.041 94.9985L95.0006 106.039L86.2536 97.2896L84.9263 98.1502C80.2932 101.162 75.2209 103.265 69.8538 104.403L68.3062 104.733V117.096H52.6933V104.733L51.1458 104.405C45.7787 103.267 40.7068 101.164 36.0733 98.1523L34.746 97.2917L25.999 106.041L14.9592 95.0001L23.7104 86.2511L22.8498 84.9259C19.8367 80.2907 17.7325 75.2205 16.5967 69.8555L16.2686 68.3058H3.90323V52.6929H16.2686L16.5967 51.1454C17.7325 45.7783 19.8363 40.708 22.8498 36.075L23.7104 34.7497L14.9592 26.0015L25.9994 14.9613L34.7506 23.7125L36.0758 22.8498C40.7068 19.8384 45.7774 17.7346 51.1462 16.5967L52.6938 16.267V3.90323H68.3067V16.2666L69.8542 16.5946C75.223 17.7325 80.2932 19.8363 84.9246 22.8477L86.2498 23.7104L95.001 14.9592L106.041 25.9994L97.29 34.7485L98.1506 36.0737C101.164 40.7089 103.268 45.7791 104.404 51.1441L104.731 52.6938H117.097V68.3062Z" fill="black"/>
<path id="Vector_2" d="M56.5971 66.3547C51.2167 66.3547 46.8389 70.7322 46.8389 76.113C46.8389 81.4938 51.2163 85.8713 56.5971 85.8713C61.978 85.8713 66.3554 81.4938 66.3554 76.113C66.3554 70.7322 61.9776 66.3547 56.5971 66.3547ZM56.5971 81.9676C53.3692 81.9676 50.7421 79.3409 50.7421 76.1126C50.7421 72.8843 53.3688 70.2575 56.5971 70.2575C59.8255 70.2575 62.4518 72.8847 62.4518 76.113C62.4518 79.3413 59.8251 81.9676 56.5971 81.9676Z" fill="black"/>
<path id="Vector_3" d="M60.5006 29.2738C59.322 29.2738 58.0746 29.3829 56.7731 29.547C55.007 27.0293 52.093 25.3706 48.791 25.3706C43.4105 25.3706 39.0327 29.748 39.0327 35.1289C39.0327 35.9799 39.1772 36.7918 39.382 37.5782C32.9653 43.4936 29.2744 51.7547 29.2744 60.5C29.2744 68.6579 32.4007 76.3295 38.0605 82.1845C40.619 89.9793 47.957 95.6291 56.597 95.6291C61.8155 95.6291 66.5501 93.5586 70.0553 90.2112C72.446 89.4422 74.7354 88.3847 76.8879 87.0516L80.8636 93.6768H85.8714C89.0993 93.6768 91.7264 91.0501 91.7264 87.8218C91.7264 85.031 89.765 82.6912 87.1479 82.1075L85.5945 78.9986C89.5952 73.6024 91.7264 67.2423 91.7264 60.4992C91.7264 43.2821 77.7177 29.2738 60.5006 29.2738ZM48.791 29.2738C52.0189 29.2738 54.646 31.9005 54.646 35.1289C54.646 38.3572 52.0193 40.9839 48.791 40.9839C45.5626 40.9839 42.9359 38.3572 42.9359 35.1289C42.9359 31.901 45.5626 29.2738 48.791 29.2738ZM56.5974 91.7254C47.9887 91.7254 40.9845 84.7213 40.9845 76.1125C40.9845 67.5038 47.9887 60.4996 56.5974 60.4996C65.2062 60.4996 72.2103 67.5038 72.2103 76.1125C72.2103 84.7213 65.2057 91.7254 56.5974 91.7254ZM47.6373 50.5074C48.4899 49.4145 49.7723 48.79 51.1579 48.79C53.3516 48.79 55.2056 50.3608 55.5665 52.5254L56.2477 56.6139C53.2521 56.6668 50.4259 57.4025 47.9025 58.6652L46.8217 54.3423C46.4861 52.9971 46.7825 51.6003 47.6373 50.5074ZM60.2017 56.5964H68.3067C69.3838 56.5964 70.2585 57.4728 70.2585 58.5482C70.2585 59.6236 69.3842 60.5 68.3067 60.5V60.5371C65.9726 58.7768 63.2402 57.5219 60.2621 56.954L60.2017 56.5964ZM74.4407 83.9852C74.4507 83.9619 74.4623 83.9402 74.4719 83.919H74.5539C74.5169 83.9427 74.4777 83.9623 74.4407 83.9852ZM85.8714 85.8708C86.9485 85.8708 87.8232 86.7472 87.8232 87.8226C87.8232 88.898 86.9489 89.7745 85.8714 89.7745H83.0727L77.2177 80.0162H75.7188C75.9766 78.7555 76.1131 77.4498 76.1131 76.113C76.1131 75.4535 76.0782 74.8036 76.0136 74.1611H78.8102L84.6652 85.8708H85.8714ZM83.604 75.0176L81.2225 70.2579H75.2134C74.419 67.7365 73.1192 65.4412 71.443 63.4761C73.0726 62.4361 74.1617 60.6208 74.1617 58.5482C74.1617 55.3203 71.535 52.6932 68.3067 52.6932H59.5518L59.4173 51.8813C58.7399 47.8278 55.2664 44.8867 51.1579 44.8867C48.5624 44.8867 46.158 46.0596 44.5597 48.1051C42.9634 50.1502 42.4051 52.7694 43.0375 55.2891L44.4348 60.8764C40.3188 64.1689 37.5709 69.0867 37.1554 74.6508C34.5811 70.4236 33.1781 65.5736 33.1781 60.4996C33.1781 53.2203 36.0995 46.3194 41.2185 41.2079C43.0079 43.4329 45.7188 44.8867 48.791 44.8867C54.1714 44.8867 58.5492 40.5093 58.5492 35.1285C58.5492 34.4944 58.4789 33.8773 58.3619 33.2766C59.1034 33.2104 59.812 33.1771 60.5006 33.1771C75.5673 33.1771 87.8232 45.4334 87.8232 60.4996C87.8232 65.716 86.3594 70.6709 83.604 75.0176Z" fill="black"/>
</g>
</g>
</g>
</svg>
