<svg width="107" height="107" viewBox="0 0 107 107" fill="none" xmlns="http://www.w3.org/2000/svg">
<g id="&#209;&#136;&#208;&#184;&#208;&#189;&#208;&#190;&#208;&#188;&#208;&#190;&#208;&#189;&#209;&#130;&#208;&#176;&#208;&#182;">
<g id="Group">
<g id="Group_2">
<path id="Vector" d="M81.1131 39.1032V36.2419C81.1131 32.642 79.2648 29.4698 76.4705 27.6127C79.2662 25.7557 81.1131 22.5838 81.1131 18.9835V10.3543C81.1131 4.64404 76.4687 0 70.758 0H10.3543C4.64404 0 0 4.64404 0 10.3547V18.9839C0 22.5838 1.84834 25.7561 4.64259 27.6131C1.84798 29.4698 0 32.642 0 36.2419V44.8712C0 48.4711 1.84834 51.6433 4.64259 53.5004C1.84834 55.357 0 58.5289 0 62.1292V70.7584C0 76.4691 4.64404 81.1131 10.3547 81.1131H39.1032C42.95 95.9759 56.4356 107 72.4839 107C91.516 107 107 91.5163 107 72.4843C107 56.4356 95.9756 42.9503 81.1131 39.1032ZM97.0164 53.5C100.948 58.5702 103.343 64.8731 103.509 71.7315L99.6842 67.9054C98.7557 62.3742 96.1876 57.4004 92.4826 53.5H97.0164ZM93.9116 50.0487H88.5202C84.1676 46.9282 78.8835 45.0451 73.1642 44.9056L76.3792 41.6906C83.139 42.5415 89.2208 45.5648 93.9116 50.0487ZM77.4161 34.5161H59.9924L66.2053 29.3386H70.758C73.9647 29.3386 76.6448 31.5479 77.4161 34.5161ZM40.1039 25.8873H24.7859L18.5729 20.7097H33.8909L40.1039 25.8873ZM39.2826 20.7097H54.601L60.8136 25.8873H45.4952L39.2826 20.7097ZM45.4956 29.3386H60.8136L54.6007 34.5161H39.2823L45.4956 29.3386ZM70.7577 25.8873H66.205L59.992 20.7097H77.4157C76.6441 23.6779 73.9644 25.8873 70.7577 25.8873ZM60.8136 3.45168L54.6007 8.62921H39.2823L45.4952 3.45168H60.8136ZM40.1039 3.45168L33.8909 8.62921H18.5729L24.7859 3.45168H40.1039ZM10.3543 3.45168H19.3942L13.1812 8.62921H3.69668C4.46791 5.66063 7.14836 3.45168 10.3543 3.45168ZM3.45132 12.0805H62.1292V8.62921H59.9927L66.2057 3.45168H70.7584C73.9647 3.45168 76.6448 5.66063 77.4164 8.62921H72.4839V12.0809H77.6614V17.2584H3.45132V12.0805ZM3.69668 20.7097H13.1816L19.3945 25.8873H10.3543C7.14836 25.8873 4.46791 23.6779 3.69668 20.7097ZM10.3543 29.3386H19.3942L13.1812 34.5161H3.69668C4.46791 31.5479 7.14836 29.3386 10.3543 29.3386ZM3.45132 37.9678H14.4312L24.7859 29.3386H40.1042L33.8909 34.5161H32.7899V37.9678H72.4835H77.661V38.3991C75.9678 38.1421 74.2474 37.9678 72.4835 37.9678C65.8462 37.9678 59.6608 39.8835 54.3919 43.1453H3.45132V37.9678ZM71.7315 41.459L67.9054 45.2836C62.3742 46.2121 57.4004 48.7802 53.5 52.4852V47.9514C58.5702 44.0198 64.8731 41.6246 71.7315 41.459ZM39.2826 46.597H49.7308C48.0496 48.0757 46.5187 49.712 45.152 51.4878L39.2826 46.597ZM40.1039 51.7742H24.7859L18.5729 46.5966H33.8913L40.1039 51.7742ZM50.0483 51.0562V56.4476C46.9279 60.8002 45.0451 66.0843 44.9056 71.8036L41.6906 68.5886C42.5408 61.8288 45.5648 55.7488 50.0483 51.0562ZM3.69668 46.5966H13.1816L19.3945 51.7742H10.3543C7.14836 51.7742 4.46791 49.5652 3.69668 46.5966ZM10.3543 55.2258H19.3942L13.1812 60.4034H3.69668C4.46791 57.4352 7.14836 55.2258 10.3543 55.2258ZM10.3543 77.6614C7.148 77.6614 4.46791 75.4521 3.69632 72.4839H13.1812L19.3942 77.6614H10.3543ZM39.1032 63.8547C38.3889 66.6178 37.9678 69.4997 37.9678 72.4839C37.9678 74.2478 38.1421 75.9682 38.3991 77.6614H24.7859L18.5729 72.4839H29.3386V69.0322H3.45132V63.8547H29.3386V60.403H18.5729L24.7859 55.2255H42.6376C41.6833 56.8701 40.8686 58.6011 40.192 60.403H32.7903V63.8547H39.1032ZM47.9514 91.4678C44.0198 86.3975 41.6246 80.0947 41.459 73.2363L45.2836 77.0623C46.2121 82.5936 48.7802 87.5674 52.4852 91.4678H47.9514ZM68.5886 103.277C61.8288 102.426 55.7484 99.403 51.0562 94.9191H56.4476V94.9195C60.8002 98.0399 66.0843 99.9227 71.8036 100.062L68.5886 103.277ZM48.3225 72.4839C48.3225 59.1606 59.1606 48.3225 72.4839 48.3225C85.8072 48.3225 96.6453 59.1606 96.6453 72.4839C96.6453 85.8072 85.8072 96.6453 72.4839 96.6453C59.1606 96.6453 48.3225 85.8072 48.3225 72.4839ZM91.4674 97.0164C86.3972 100.948 80.0943 103.343 73.2359 103.509L77.062 99.6842C82.5932 98.7557 87.5671 96.1876 91.4674 92.4826V97.0164ZM94.9195 93.9116V88.5202C98.0399 84.1676 99.9227 78.8835 100.062 73.1642L103.277 76.3792C102.427 83.139 99.4026 89.219 94.9195 93.9116Z" fill="black"/>
<path id="Vector_2" d="M89.7411 72.4841C89.7411 62.9681 81.9991 55.2261 72.483 55.2261C62.967 55.2261 55.2246 62.9681 55.2246 72.4841C55.2246 82.0002 62.9666 89.7422 72.4827 89.7422C81.9987 89.7422 89.7411 82.0002 89.7411 72.4841ZM58.6767 72.4841C58.6767 64.8715 64.8704 58.6778 72.483 58.6778C80.0956 58.6778 86.2894 64.8715 86.2894 72.4841C86.2894 80.0967 80.0956 86.2905 72.483 86.2905C64.8704 86.2905 58.6767 80.0967 58.6767 72.4841Z" fill="black"/>
<path id="Vector_3" d="M69.0318 8.62915H65.5801V12.0808H69.0318V8.62915Z" fill="black"/>
<path id="Vector_4" d="M29.3384 34.5161H25.8867V37.9678H29.3384V34.5161Z" fill="black"/>
<path id="Vector_5" d="M22.5064 34.5161H19.0547V37.9678H22.5064V34.5161Z" fill="black"/>
<path id="Vector_6" d="M72.4844 91.4677V94.9194C78.0138 94.9194 83.3258 92.8899 87.4418 89.2052L85.1397 86.6338C81.6572 89.7506 77.1632 91.4677 72.4844 91.4677Z" fill="black"/>
<path id="Vector_7" d="M36.2417 69.0322H32.79V72.4839H36.2417V69.0322Z" fill="black"/>
<path id="Vector_8" d="M37.8619 90.6392L34.835 92.2976C37.888 97.8683 42.1921 102.832 47.2815 106.656L49.3542 103.897C44.6544 100.364 40.6801 95.7804 37.8619 90.6392Z" fill="black"/>
</g>
</g>
</g>
</svg>
